<svg id="Layer_1" data-name="Layer 1" xmlns="http://www.w3.org/2000/svg" viewBox="0 0 600 450"><defs><style>.cls-8{fill:#17262d}.cls-10{fill:#192a32}.cls-14{fill:#304f5e}.cls-16{fill:#2a4552}.cls-18{fill:#213741}.cls-21{fill:#2f4c5a}.cls-23{fill:#27404c}.cls-24{fill:#1f343e}.cls-26{fill:#1c2e37}.cls-27{fill:#1e313a}.cls-28{fill:#325363}.cls-29{fill:#f6c503}.cls-30{fill:#f0eee3}</style></defs><path d="M660 765V315h600v450zm9.87-199.5V660l1 30.12c1.37 9.15 4 17.86 9.29 25.58a6.37 6.37 0 00.5 1.35c15.45 23.6 37.2 35.9 65.49 35.92q133.18.12 266.37 0c1.25 0 2.49-.07 3.74-.12a14.72 14.72 0 001.49.13c53.89 0 107.79.09 161.69-.14 5.61 0 11.21-2 16.82-3a6.5 6.5 0 001.09-.14c15.29-5 28-13.56 37.63-26.6 5.43-7 9.84-14.57 11.52-23.45a4.82 4.82 0 00.53-.93c3.78-12.67 3-25.7 3-38.67l.14-2.32V399c-.39-3.25-.77-6.5-1.16-9.76a32.09 32.09 0 00-1.07-5c-2.4-6.36-4.94-12.67-7.43-19a21.67 21.67 0 00-1.16-2.31c-15.3-23.64-37-35.85-65.2-35.89q-135-.18-269.94-.05c-1.12 0-2.24.08-3.36.13a4.82 4.82 0 00-.75-.1c-52.74 0-105.49-.09-158.23.15-6 0-12 1.93-18 3l-18.88 8.56a59.48 59.48 0 00-17.94 15.85q-4.63 7-9.27 13.94L672.9 381c-2.79 9.31-3.4 18.84-3 28.48l-.06 15v141z" transform="translate(-660 -315)" fill="#fefefe"/><path d="M670.86 690.12l-1-30.12c3.49.39 7 .74 10.49 1.19 6.38.82 12.75 1.76 19.13 2.54 5.42.66 10.86 1.14 16.28 1.73q12.38 1.37 24.75 2.79 9.71 1.11 19.41 2.28c3.94.47 7.86 1.05 11.8 1.45 6 .62 12.11 1.07 18.16 1.7 8.38.88 16.74 1.91 25.12 2.81 7.89.85 15.79 1.61 23.68 2.45 8.57.91 17.13 1.9 25.7 2.8 7.89.84 15.8 1.48 23.68 2.44 8.73 1.05 17.4 2.56 26.14 3.51 9.25 1 18.56 1.4 27.81 2.38 13.74 1.45 27.43 3.29 41.16 4.77 12.07 1.29 24.18 2.17 36.24 3.5 9.69 1.06 19.33 2.59 29 3.76 11 1.31 21.92 2.43 32.89 3.65 8.55 1 17.11 1.88 25.65 2.89 8.24 1 16.47 2.14 24.71 3.08 9.46 1.08 18.94 2 28.41 3 13 1.33 26.08 2.5 39.1 4 11.94 1.33 23.85 3 35.77 4.45-9.6 13-22.34 21.62-37.63 26.6a6.5 6.5 0 01-1.09.14c-1.51-.92-2.91-2.23-4.55-2.66a60.73 60.73 0 00-9.49-1.63c-11.06-1.09-22.13-2-33.18-3.1-7.83-.81-15.64-1.86-23.45-2.91-2.32-.31-4.58-1.19-6.91-1.41-6.69-.63-13.41-.95-20.1-1.6-6.53-.63-13-1.62-19.57-2.27s-13.12-.9-19.65-1.64c-11.69-1.33-23.35-3-35-4.34-12.19-1.39-24.42-2.51-36.62-3.83-2.44-.26-4.83-1.1-7.27-1.34-3.67-.36-7.37-.32-11-.66-8.15-.75-16.28-1.64-24.42-2.47-3.34-.33-6.68-.58-10-1-9.47-1.14-18.91-2.4-28.38-3.5-5.66-.66-11.36-1.06-17-1.65-11.34-1.18-22.67-2.41-34-3.62-5.3-.57-10.6-1.12-15.89-1.75-9.44-1.14-18.87-2.38-28.31-3.48-7.83-.92-15.68-1.66-23.51-2.54s-15.5-1.89-23.26-2.71c-6.42-.67-12.86-1.07-19.28-1.73-8.51-.86-17-1.83-25.5-2.8-7.8-.89-15.59-1.93-23.4-2.75-8.6-.91-17.12-1.62-25.62-2.4z" transform="translate(-660 -315)" fill="#0c1418"/><path d="M1235 723.12c-11.92-1.49-23.83-3.12-35.77-4.45-13-1.46-26.07-2.63-39.1-4-9.47-1-18.95-1.91-28.41-3-8.24-.94-16.47-2.1-24.71-3.08-8.54-1-17.1-1.94-25.65-2.89-11-1.22-21.94-2.34-32.89-3.65-9.68-1.17-19.32-2.7-29-3.76-12.06-1.33-24.17-2.21-36.24-3.5-13.73-1.48-27.42-3.32-41.16-4.77-9.25-1-18.56-1.38-27.81-2.38-8.74-1-17.41-2.46-26.14-3.51-7.88-1-15.79-1.6-23.68-2.44-8.57-.9-17.13-1.89-25.7-2.8-7.89-.84-15.79-1.6-23.68-2.45-8.38-.9-16.74-1.93-25.12-2.81-6-.63-12.11-1.08-18.16-1.7-3.94-.4-7.86-1-11.8-1.45q-9.71-1.15-19.41-2.28-12.37-1.41-24.75-2.79c-5.42-.59-10.86-1.07-16.28-1.73-6.38-.78-12.75-1.72-19.13-2.54-3.49-.45-7-.8-10.49-1.19v-23.2l24 2.42c5.22.51 10.44.93 15.66 1.48 9 1 18 2 26.95 3 5.42.56 10.88.85 16.29 1.5 9.2 1.11 18.36 2.51 27.56 3.6 7.88.94 15.8 1.52 23.68 2.45 8.47 1 16.91 2.29 25.38 3.32 6.35.77 12.72 1.3 19.08 2 8.63.91 17.24 1.95 25.87 2.75 7.05.66 14.11 1 21.17 1.57.48 0 .95.28 1.44.36 6.82 1.11 13.62 2.44 20.48 3.25 8 .94 16.13 1.31 24.17 2.16 5.64.6 11.22 1.7 16.86 2.36 6.82.8 13.67 1.36 20.51 2.06 7.85.82 15.68 1.75 23.54 2.5 9 .87 18.06 1.39 27 2.43 13.16 1.52 26.27 3.47 39.43 5 13.6 1.63 27.23 3 40.86 4.52 11.7 1.27 23.4 2.57 35.12 3.76 13.27 1.35 26.56 2.52 39.83 3.9 8.13.84 16.21 2.11 24.35 2.87 12.35 1.15 24.72 2 37.09 3 .07.21.14.43.19.64-1.62 8.9-6.03 16.44-11.43 23.47z" transform="translate(-660 -315)" fill="#0f191e"/><path d="M670.86 690.12c8.5.78 17 1.49 25.52 2.37 7.81.82 15.6 1.86 23.4 2.75 8.5 1 17 1.94 25.5 2.8 6.42.66 12.86 1.06 19.28 1.73 7.76.82 15.5 1.84 23.26 2.71s15.68 1.62 23.51 2.54c9.44 1.1 18.87 2.34 28.31 3.48 5.29.63 10.59 1.18 15.89 1.75 11.34 1.21 22.67 2.44 34 3.62 5.68.59 11.38 1 17 1.65 9.47 1.1 18.91 2.36 28.38 3.5 3.32.4 6.66.65 10 1 8.14.83 16.27 1.72 24.42 2.47 3.67.34 7.37.3 11 .66 2.44.24 4.83 1.08 7.27 1.34 12.2 1.32 24.43 2.44 36.62 3.83 11.69 1.33 23.35 3 35 4.34 6.53.74 13.11 1 19.65 1.64s13 1.64 19.57 2.27c6.69.65 13.41 1 20.1 1.6 2.33.22 4.59 1.1 6.91 1.41 7.81 1.05 15.62 2.1 23.45 2.91 11 1.14 22.12 2 33.18 3.1a60.73 60.73 0 019.49 1.63c1.64.43 3 1.74 4.55 2.66-5.61 1-11.21 3-16.82 3-53.9.23-107.8.14-161.69.14a14.72 14.72 0 01-1.49-.13c-.75-.45-1.46-1.2-2.26-1.32-3.06-.44-6.16-.63-9.23-1-9.45-1.16-18.89-2.42-28.34-3.52-7.76-.9-15.53-1.62-23.29-2.43l-27-2.84c-7.89-.84-15.77-1.67-23.65-2.54s-16-1.79-24-2.71c-4-.47-8.11-1-12.16-1.49-5.89-.74-11.78-1.61-17.68-2.24-8.38-.88-16.79-1.55-25.17-2.41-11.21-1.15-22.41-2.42-33.61-3.6-5.55-.59-11.12-1-16.65-1.66-8.94-1.11-17.85-2.5-26.8-3.56-6.28-.74-12.61-1-18.9-1.68-8.24-.87-16.47-1.92-24.72-2.85-2.39-.27-4.84-.24-7.21-.63-4.12-.66-8.18-1.68-12.31-2.23-1-.13-2.1 1-3.16 1.55-5.14-7.73-7.75-16.46-9.12-25.61z" transform="translate(-660 -315)" fill="#091013"/><path d="M1240.41 365.25c2.49 6.33 5 12.64 7.43 19a32.09 32.09 0 011.07 5c-6.47-.5-13-1-19.41-1.52-5.68-.5-11.37-1-17-1.71-6.75-.82-13.46-2-20.22-2.73-6.53-.74-13.1-1.12-19.64-1.8-7.89-.83-15.76-1.79-23.64-2.74-8-1-16.08-2-24.12-3-2.09-.26-4.18-.51-6.27-.73l-20.48-2.09c-4.66-.48-9.32-1-14-1.41-5.91-.52-11.84-.81-17.73-1.46-6.31-.69-12.58-1.8-18.9-2.51-8.19-.92-16.42-1.54-24.62-2.46-9.45-1.07-18.87-2.4-28.32-3.51-5.77-.67-11.57-1.09-17.34-1.72-2.71-.29-5.37-.86-8.07-1.19-4.88-.58-9.75-1.16-14.64-1.58-5.69-.5-11.4-.71-17.07-1.27-4.12-.41-8.18-1.29-12.29-1.78-7.39-.87-14.79-1.64-22.19-2.41q-14.06-1.46-28.11-2.86c-4.15-.41-8.31-.66-12.45-1.19-10-1.29-20-2.83-30-4s-19.84-2-29.76-3q-18.46-1.87-36.93-3.79c-3.09-.31-6.17-.64-9.26-1-9-.93-18.05-1.73-27-2.89-2-.26-3.78-1.8-5.66-2.74 6-1 12-2.94 18-3 52.74-.24 105.49-.15 158.23-.15a4.82 4.82 0 01.75.1 16.67 16.67 0 003.39 1.33c3.64.58 7.32 1 11 1.44s7.35 1.4 11 1.53c5.54.18 10.87 1.77 16.57 1.41s11.3 1 16.95 1.67 11.16 1.56 16.76 2a66.32 66.32 0 0112.35 2.1c4.91 1.35 10.35.71 15.54 1.15 2.44.2 4.83 1.08 7.27 1.31 3.9.36 7.85.26 11.74.68 6 .64 12 1.61 18.05 2.35q10.17 1.23 20.36 2.3c7.9.82 15.8 1.57 23.7 2.3 5.49.51 11 .8 16.49 1.47 3.85.48 7.79 2.48 11.43 2 6.45-.91 12.33 1.39 18.5 1.84 7.87.58 15.66 2.09 23.52 2.94 6.61.71 13.28.93 19.9 1.56s13.17 1.54 19.75 2.29c4.14.47 8.28.93 12.42 1.33q16.48 1.61 32.95 3.14z" transform="translate(-660 -315)" fill="#3d6578"/><path d="M686.93 354.56a59.48 59.48 0 0117.94-15.85c5 .85 10.09 1.85 15.16 2.5 6.76.87 13.55 1.51 20.34 2.17 6.61.63 13.24 1.14 19.85 1.74 3 .27 6.08.54 9.1 1 3.9.56 7.76 1.39 11.67 1.88 8.11 1 16.23 1.93 24.34 2.85 2.59.3 5.17.61 7.76.77 4 .25 8 .2 11.91.61 3.79.38 7.52 1.35 11.32 1.77 8.13.89 16.31 1.44 24.44 2.4 11.32 1.34 22.59 3 33.91 4.34 8.38 1 16.81 1.48 25.2 2.39 10.35 1.11 20.67 2.43 31 3.64q18.25 2.14 36.5 4.23 12 1.35 23.92 2.5c12.05 1.16 24.13 2.08 36.16 3.39 8 .87 15.92 2.36 23.91 3.35 5.17.63 10.4.7 15.58 1.27 9 1 18 2.24 26.93 3.25 7.26.82 14.52 1.47 21.79 2.17q12.22 1.2 24.45 2.35c5.8.55 11.62 1 17.42 1.65 9.84 1.13 19.65 2.43 29.49 3.59 5.54.65 11.1 1.19 16.65 1.77l26.39 2.74v19.5c-6.58-.67-13.18-1.28-19.76-2-9-1-17.94-2.2-26.93-3.2-7.89-.88-15.89-1.09-23.67-2.53-10.24-1.9-20.78-1.05-30.91-4.08-4.47-1.33-9.38-1.21-14.1-1.62-9.15-.81-18.31-1.48-27.45-2.31-5.92-.54-11.83-1.24-17.74-1.93-7-.82-14-1.76-21-2.53-6-.65-11.94-1.08-17.91-1.69-8.88-.9-17.75-1.88-26.62-2.83-5.86-.63-11.72-1.25-17.57-1.95-11-1.32-21.95-2.79-32.94-4-8.5-.95-17-1.64-25.56-2.42-1.8-.17-3.62-.09-5.39-.39-4.23-.74-8.41-1.89-12.67-2.41-7.7-.94-15.44-1.53-23.16-2.3-1.73-.17-3.43-.6-5.16-.71-6.19-.41-12.64.19-18.53-1.35-6.81-1.78-13.59-2-20.44-2.5-1.81-.14-3.55-1.09-5.36-1.26-8.23-.77-16.48-1.33-24.7-2.09-6.71-.61-13.41-1.38-20.11-2.08-5-.53-10-1-15-1.6-8.06-.88-16.1-1.83-24.16-2.65-6.17-.63-12.36-1.08-18.53-1.62-2.48-.22-5-.4-7.41-.74-8.51-1.18-17-2.61-25.52-3.61-10.35-1.2-20.74-2-31.09-3.17-1.31-.23-2.49-1.59-3.74-2.4z" transform="translate(-660 -315)" fill="#3a6072"/><path d="M669.87 509.25V487.5c5.84.52 11.7 1 17.54 1.58 11.59 1.19 23.18 2.4 34.75 3.76 1.09.13 2.05 1.38 3.08 2.11l-3.15 1.21c1.2 2.94 2.27 5.53 3.35 8.17 7.95-1 14.74-3.57 20.06-9.33l26.74 3c3.25 7.76 1.79 6.26 9.25 5.28.89.72 1.71 1.9 2.7 2.08 2.93.51 5.92.57 8.89.89 6 .65 12.07 1.29 18.1 2s11.77 1.81 17.69 2.4c9.26.93 18.57 1.4 27.82 2.38 12.32 1.31 24.62 2.91 36.92 4.42 2.57.32 5.1.93 7.67 1.15 3.68.32 7.39.25 11.06.62 8.39.82 16.76 1.83 25.14 2.72 5.87.62 11.75 1.1 17.61 1.74q22.36 2.46 44.71 5c9.34 1.06 18.67 2.17 28 3.22q16.08 1.8 32.16 3.53c6.9.75 13.81 1.44 20.71 2.26 5.66.67 11.29 1.6 17 2.21 8.27.89 16.56 1.47 24.82 2.39 14.79 1.63 29.55 3.44 44.33 5.13l27 3c3.79.43 7.56 1.12 11.36 1.48 5.63.53 11.3.73 16.92 1.32 9.37 1 18.72 2.14 28.07 3.23v12l-24-2.25c-8.6-.83-17.2-1.7-25.81-2.48a21.1 21.1 0 00-3.53.29c-1.56-2.76-3.66-3.87-7-3.19s-3.57 3.71-3.91 5.86c-.56 3.57 2.58 4.58 5.39 5.44h-8.47c.51-5.69-.32-7.61-3.46-8.16-3.53-.63-5 1.14-6.74 8-4.4 1.8-4.11-2.52-5.52-4.4-3.37.71-3.37.71-3.52 3l-3.6.1c-.72-6.25-.72-6.25-5-4.49V572l-1 .12c-.34-1.69-.69-3.38-1.09-5.29l-3.46.35c-.45 1.93-.82 3.58-1.2 5.23l-1.4-.16-1.26-5.46-3.75.49.86 1c-1.11 1.36-2.06 3.69-3.35 3.9-4.45.74-2.18-3.65-3.9-5.91l-3.66 1.52-34.58-3-.42-7.36h-4c-1.7-.8-3.34-2.09-5.11-2.31-8.1-1-16.24-1.65-24.35-2.51-10.85-1.15-21.69-2.37-32.52-3.57-5.67-.63-11.34-1.23-17-2s-11.49-1.79-17.27-2.37c-5.63-.57-11.32-.5-16.94-1.09-10-1-19.91-2.4-29.86-3.58-6.28-.75-12.56-1.42-18.84-2.09q-18.49-2-37-3.91c-5.68-.59-11.38-1-17-1.63-10.7-1.16-21.39-2.45-32.1-3.62-3.58-.39-7.19-.46-10.76-.9-7-.87-14-2-21-2.85-8-1-16-1.89-24-2.88-5.4-.66-10.78-1.57-16.2-2.08-6.63-.64-13.3-.82-19.92-1.49s-13.24-1.79-19.88-2.53c-4.32-.47-8.7-.44-13-.93-7.37-.83-14.71-2-22.08-2.83-9.35-1.07-18.72-2.01-28.09-3.01zm457 53.06l2.32 2.44c1.15-.47 2.66-1.44 3-1.14 2.46 2.29 3.38.15 5.44-2.3L1129 560zm67.48-5.16l-3.49-3.18-2.88 2.91 3.41 2.93z" transform="translate(-660 -315)" fill="#243c47"/><path class="cls-8" d="M669.88 594.75v-18c3.15.49 6.29 1.12 9.45 1.44 8.38.84 16.76 1.55 25.14 2.31 5.38.49 10.75 1 16.13 1.45 3.7.29 7.41.42 11.11.62l4 .75c.4.46.75 1.25 1.2 1.31 3.61.45 7.25.75 10.87 1.12l17 1.8q12.39 1.34 24.77 2.7c8.15.9 16.29 1.83 24.44 2.71s16.1 1.73 24.16 2.53c8.39.84 16.81 1.48 25.19 2.44 9.08 1.05 18.12 2.45 27.2 3.54 5.91.71 11.86 1.09 17.79 1.68 9.13.92 18.25 1.9 27.37 2.85 5.44.57 10.89 1 16.32 1.73 10.93 1.36 21.84 2.94 32.78 4.24 7.51.89 15.07 1.35 22.58 2.22 3.81.44 7.54 1.59 11.35 2s7.77.06 11.62.46c7.64.8 15.24 1.9 22.87 2.83 14.72 1.78 29.62 1.75 44.19 5.12 5.63 1.3 11.59 1.13 17.4 1.66 6.3.57 12.61 1.1 18.9 1.78 10 1.09 19.94 2.34 29.92 3.44 6 .67 12 1.14 18 1.77 8.46.88 16.91 1.84 25.37 2.75q13.24 1.43 26.49 2.8 8.31.87 16.62 1.7v17.25c-4.21-.25-8.44-.43-12.65-.77-5.69-.46-11.38-.89-17-1.61-8.48-1.08-16.91-2.58-25.39-3.57-12.07-1.41-24.18-2.49-36.26-3.8-2.43-.26-4.8-1.16-7.23-1.38-3.41-.29-6.88 0-10.28-.36-9.53-1-19-2.46-28.57-3.47-11-1.18-22-1.93-33-3.14-16.75-1.84-33.48-3.89-50.21-5.9-2.94-.35-5.84-1-8.79-1.3-3.77-.35-7.6-.27-11.36-.68-11.59-1.26-23.15-2.67-34.73-4-5.66-.65-11.39-1-17-2-7.7-1.46-15.57-.47-23.3-2.76-5.48-1.62-11.66-.73-17.5-1.34-12.76-1.33-25.5-2.89-38.25-4.39-10.32-1.21-20.62-2.54-30.95-3.71-9.6-1.09-19.22-2-28.82-3-11.42-1.25-22.81-2.65-34.23-3.84-10.24-1.07-20.5-1.91-30.74-2.91-6.79-.66-13.57-1.34-20.34-2.13-6-.71-12-1.64-18.07-2.35-5.42-.63-10.86-1.08-16.29-1.62z" transform="translate(-660 -315)"/><path d="M1246.29 699c-12.36-1-24.73-1.87-37.08-3-8.14-.76-16.22-2-24.35-2.87-13.27-1.38-26.56-2.55-39.83-3.9-11.72-1.19-23.42-2.49-35.12-3.76-13.63-1.48-27.26-2.89-40.86-4.52-13.16-1.57-26.27-3.52-39.43-5-9-1-18-1.56-27-2.43-7.86-.75-15.69-1.68-23.54-2.5-6.84-.7-13.69-1.26-20.51-2.06-5.64-.66-11.22-1.76-16.86-2.36-8-.85-16.14-1.22-24.17-2.16-6.86-.81-13.66-2.14-20.48-3.25-.49-.08-1-.32-1.44-.36-7.06-.53-14.12-.91-21.17-1.57-8.63-.8-17.24-1.84-25.87-2.75-6.36-.68-12.73-1.21-19.08-2-8.47-1-16.91-2.32-25.38-3.32-7.88-.93-15.8-1.51-23.68-2.45-9.2-1.09-18.36-2.49-27.56-3.6-5.41-.65-10.87-.94-16.29-1.5-9-1-18-2-26.95-3-5.22-.55-10.44-1-15.66-1.48q-12-1.18-24-2.42V621c6.9.7 13.82 1.29 20.71 2.11 5.4.65 10.75 1.74 16.16 2.32 4.88.53 9.81.47 14.69 1 7.89.81 15.74 2 23.62 2.81 8.27.89 16.57 1.48 24.83 2.38 12.82 1.38 25.61 2.91 38.42 4.4 10.71 1.24 21.4 2.58 32.12 3.72 6.54.7 13.13.92 19.66 1.67 14 1.59 27.92 3.47 41.89 5.08 8.25.95 16.55 1.54 24.82 2.39 11.21 1.16 22.43 2.35 33.63 3.66 8.59 1 17.15 2.23 25.74 3.31 2.33.29 4.7.37 7.05.61 8.75.92 17.49 1.91 26.24 2.8 6.24.63 12.52.94 18.74 1.75 7.54 1 15 2.57 22.56 3.43 9.17 1 18.42 1.46 27.61 2.36s18.43 2.05 27.65 3.1c8.24 1 16.48 2 24.74 2.85 8.64.88 17.3 1.49 25.94 2.38q16.69 1.71 33.37 3.69c5.78.68 11.51 1.7 17.29 2.32 9.93 1.07 19.88 2 29.83 2.92z" transform="translate(-660 -315)" fill="#121d23"/><path class="cls-10" d="M1250.12 640.5q-8.31-.84-16.62-1.7-13.24-1.38-26.49-2.8c-8.46-.91-16.91-1.87-25.37-2.75-6-.63-12-1.1-18-1.77-10-1.1-19.94-2.35-29.92-3.44-6.29-.68-12.6-1.21-18.9-1.78-5.81-.53-11.77-.36-17.4-1.66-14.57-3.37-29.47-3.34-44.19-5.12-7.63-.93-15.23-2-22.87-2.83-3.85-.4-7.77 0-11.62-.46s-7.54-1.56-11.35-2c-7.51-.87-15.07-1.33-22.58-2.22-10.94-1.3-21.85-2.88-32.78-4.24-5.43-.68-10.88-1.16-16.32-1.73-9.12-1-18.24-1.93-27.37-2.85-5.93-.59-11.88-1-17.79-1.68-9.08-1.09-18.12-2.49-27.2-3.54-8.38-1-16.8-1.6-25.19-2.44-8.06-.8-16.11-1.66-24.16-2.53s-16.29-1.81-24.44-2.71-16.51-1.81-24.77-2.7l-17-1.8c-3.62-.37-7.26-.67-10.87-1.12-.45-.06-.8-.85-1.2-1.31 3.9-1.69 6.8-4.17 6.94-8.82h2c.6.68 1.41 2 1.77 1.89a10.82 10.82 0 002.84-1.89l5.23.75-7.08 6c.59 2.51 2.67 3 5.52 1.56 1.21-.61 3.05-1.07 3.44-2.05 1.86-4.78 6-4.39 9.8-4.69 2.46-.19 5 .15 7.43.16 4.26 0 5.71-1.26 6.52-5.52l10.86 1.64c-.53 4.23-1.07 8.45-1.64 12.9H794l.6-10.64c1.78.79 2.76 1.3 3.8 1.67 4.33 1.56 7-.29 7.12-4.84 0-.74.06-1.48.09-2.23l9.63.75c-.83.76-1.56 1.93-2.52 2.17-1.48.37-3.12.1-5.65.1.83 1.7 1.19 3.9 2.18 4.23 4.5 1.52 9.42-1.22 11.21-5.75l3.35-.12c1.52 5.58.24 7.4-7.68 10 1.54 1.09 3.16 3 4 2.68a22.55 22.55 0 007.43-4.39c1.92-1.79 6.63-3.74 9.46-2.79 1.17 2.69 2.21 2.85 4.51.68l1.43-.32c1.21.81 2.34 2.16 3.64 2.34 5.31.73 10.67 1.12 16 1.63 1.56 3 3.48 2.76 5.61.63 3.34.29 6.69.51 10 .88 8 .91 16 2 24 2.83 8.37.89 16.77 1.62 25.15 2.41 1 .09 2 .1 3 .24 6.62.9 13.22 1.94 19.85 2.74 9.59 1.15 19.19 2.17 28.8 3.19 9.11 1 18.24 1.88 27.36 2.83 8 .84 16 1.67 24 2.58 9.58 1.1 19.14 2.32 28.72 3.4 5.79.66 11.6 1.09 17.4 1.72 10.7 1.15 21.4 2.37 32.11 3.55 7.51.82 15 1.6 22.55 2.4 8.81 1 17.6 1.93 26.41 2.84 5.92.61 11.87 1 17.78 1.68 9.08 1.09 18.11 2.5 27.19 3.54 7.59.88 15.22 1.42 22.83 2.14 8.26.78 16.53 1.6 24.79 2.4z" transform="translate(-660 -315)"/><path d="M686.93 354.56c1.25.81 2.43 2.17 3.76 2.32 10.35 1.18 20.74 2 31.09 3.17 8.53 1 17 2.43 25.52 3.61 2.46.34 4.93.52 7.41.74 6.17.54 12.36 1 18.53 1.62 8.06.82 16.1 1.77 24.16 2.65 5 .55 10 1.07 15 1.6 6.7.7 13.4 1.47 20.11 2.08 8.22.76 16.47 1.32 24.7 2.09 1.81.17 3.55 1.12 5.36 1.26 6.85.53 13.63.72 20.44 2.5 5.89 1.54 12.34.94 18.53 1.35 1.73.11 3.43.54 5.16.71 7.72.77 15.46 1.36 23.16 2.3 4.26.52 8.44 1.67 12.67 2.41 1.77.3 3.59.22 5.39.39 8.52.78 17.06 1.47 25.56 2.42 11 1.23 22 2.7 32.94 4 5.85.7 11.71 1.32 17.57 1.95 8.87.95 17.74 1.93 26.62 2.83 6 .61 12 1 17.91 1.69 7 .77 14 1.71 21 2.53 5.91.69 11.82 1.39 17.74 1.93 9.14.83 18.3 1.5 27.45 2.31 4.72.41 9.63.29 14.1 1.62 10.13 3 20.67 2.18 30.91 4.08 7.78 1.44 15.78 1.65 23.67 2.53 9 1 18 2.18 26.93 3.2 6.58.75 13.18 1.36 19.76 2v14.25a49.93 49.93 0 01-5.61-.12c-8.71-1.15-17.39-2.53-26.11-3.58-7.83-.94-15.69-1.57-23.54-2.29-9-.81-17.93-1.4-26.87-2.39-14.28-1.57-28.52-3.52-42.8-5.07-11.27-1.24-22.58-2-33.85-3.21-7.26-.77-14.45-2.06-21.69-2.92-9.17-1.08-18.37-1.87-27.53-2.95-6.57-.78-13.09-1.92-19.65-2.75-4-.51-8 .24-12.18-1.15-3.89-1.31-8.44-.56-12.69-.93-6.05-.53-12.08-1.24-18.11-1.89-8.38-.91-16.76-1.81-25.13-2.78-9-1-18-2.2-26.94-3.2-5-.55-10-.8-15-1.33-4.3-.46-8.58-1.14-12.88-1.69-5.4-.68-10.82-1.27-16.22-2-3.83-.51-7.63-1.34-11.48-1.71-8.19-.79-16.4-1.36-24.59-2.08-1.46-.13-2.89-.7-4.34-.8-6-.43-12.09-.63-18.11-1.15s-11.87-1.35-17.81-2c-1.23-.13-2.5 0-3.72-.19-4.37-.64-8.7-1.52-13.08-2-8-.94-16-1.56-24-2.56s-16.12-2.45-24.21-3.41c-5.5-.66-11.22.84-16.58-1.55-.1-.05-.25 0-.37 0-4.7-.38-9.41-.64-14.09-1.19-7.93-.92-15.84-2-23.76-3-.46-.05-1 .39-1.44.3-2.75-.61-6.09.56-8-2.56z" transform="translate(-660 -315)" fill="#385c6d"/><path d="M669.94 409.48c-.44-9.64.17-19.17 3-28.48 4.81.52 9.61 1.08 14.42 1.55 3.7.36 7.43.46 11.12.92 6.62.83 13.19 2 19.81 2.74 6 .71 12.11 1 18.16 1.67q16.08 1.72 32.13 3.63c9.1 1.08 18.19 2.32 27.29 3.38 8 .93 16.11 1.74 24.17 2.56 5.11.51 10.25.77 15.34 1.43 6.63.85 13.2 2.12 19.83 2.95 4.13.51 8.32.43 12.47.79 8.24.73 16.47 1.58 24.69 2.39 1.11.1 2.22.28 3.32.42 6.75.86 13.5 1.77 20.26 2.55 5.42.63 10.86 1 16.29 1.65 8.12.91 16.23 2 24.36 2.86 9.84 1.08 19.7 2.08 29.56 3.11 14 1.47 28 2.89 42.07 4.41q14.76 1.61 29.5 3.46c4.91.62 9.77 1.78 14.69 2.23 8.86.8 17.78.95 26.61 1.93 10.21 1.13 20.32 3.09 30.52 4.28 9.19 1.07 18.45 1.55 27.67 2.36 4.39.38 8.76.89 13.13 1.42 3.8.46 7.58 1.14 11.39 1.54 6.1.63 12.24.94 18.33 1.7 5.7.72 11.32 2.18 17 2.71 11 1 22 1.6 33.06 2.36v20.25c-8.18-1-16.36-2.07-24.55-2.91-1.11-.12-2.33.9-3.5 1.39-.27-2.94-1.62-4.15-4.62-3a19.05 19.05 0 01-3.21.67 22.84 22.84 0 00-3.41-2.1 42 42 0 00-4.85-1.37l6.77-3.62c5.73 4.67 7.12 4.42 11.16-2.35-5.45-6.12-5.27-7.92-11.87-1.74-6-4.64-7.36-4.38-11.3 2.21 1 1.16 2 2.37 3.09 3.58l-7.54.24V441.3l-10.18 2.11-.43 7.35c-8.93-.51-17.85-1-26.77-1.54-3.59-.23-7.19-.43-10.75-.9-10.28-1.37-20.52-3-30.81-4.28-8.84-1.11-17.72-2-26.59-2.78-1.59-.15-3.24.47-4.86.73l-5-.94a14.46 14.46 0 00-2.48-.77c-7.51-.84-15-1.58-22.54-2.46-11.94-1.39-23.85-3-35.79-4.28-4.87-.53-9.81-.39-14.69-.91-4.28-.45-8.48-1.58-12.76-2.09-7.88-.93-15.79-1.6-23.68-2.44q-16.46-1.75-32.89-3.61c-9.23-1.06-18.45-2.23-27.68-3.31-7.82-.92-15.63-1.86-23.45-2.66-10.73-1.11-21.48-2-32.21-3.17s-21.67-2.39-32.51-3.6c-6.1-.68-12.2-1.34-18.29-2.09-3.81-.47-7.58-1.22-11.39-1.64-8-.87-16-1.59-24.06-2.41q-13.68-1.39-27.36-2.87c-8.26-.89-16.53-1.84-24.79-2.77-5-.56-10.09-1.15-15.14-1.72-3.32-.38-6.65-.74-10-1.14-5-.61-10.08-1.35-15.13-1.75a3.39 3.39 0 00-2.7 1.91c-.51 3.55-.59 7.16-.82 10.75z" transform="translate(-660 -315)" fill="#355768"/><path d="M669.88 594.75l29.24 2.89c5.43.54 10.87 1 16.29 1.62 6 .71 12 1.64 18.07 2.35 6.77.79 13.55 1.47 20.34 2.13 10.24 1 20.5 1.84 30.74 2.91 11.42 1.19 22.81 2.59 34.23 3.84 9.6 1.06 19.22 2 28.82 3 10.33 1.17 20.63 2.5 30.95 3.71 12.75 1.5 25.49 3.06 38.25 4.39 5.84.61 12-.28 17.5 1.34 7.73 2.29 15.6 1.3 23.3 2.76 5.59 1.06 11.32 1.36 17 2 11.58 1.35 23.14 2.76 34.73 4 3.76.41 7.59.33 11.36.68 3 .27 5.85.95 8.79 1.3 16.73 2 33.46 4.06 50.21 5.9 11 1.21 22 2 33 3.14 9.54 1 19 2.42 28.57 3.47 3.4.38 6.87.07 10.28.36 2.43.22 4.8 1.12 7.23 1.38 12.08 1.31 24.19 2.39 36.26 3.8 8.48 1 16.91 2.49 25.39 3.57 5.66.72 11.35 1.15 17 1.61 4.21.34 8.44.52 12.65.77 0 .78-.09 1.55-.14 2.32q-.69 5.59-1.4 11.19l-21.12-2.18-24.05-2.5c-8.88-.92-17.76-1.82-26.64-2.75-7.56-.8-15.13-1.52-22.67-2.46-3.75-.47-7.43-1.6-11.18-2-11.61-1.14-23.25-2-34.85-3.1-9.13-.89-18.23-2.09-27.35-3.1q-13.31-1.49-26.62-2.86c-5.92-.61-11.87-1-17.77-1.74-7.86-1-15.66-2.56-23.53-3.46-10.85-1.22-21.74-2-32.6-3.07q-11.49-1.1-22.95-2.35c-8.25-.91-16.49-1.94-24.74-2.89-6.4-.74-12.81-1.43-19.21-2.16-6.65-.77-13.28-1.64-19.94-2.32-6.17-.63-12.38-1-18.55-1.63-8.12-.86-16.22-2-24.33-2.88-4.31-.49-8.65-.75-13-1.25-8.86-1-17.71-2.25-26.57-3.24-8-.89-16-1.59-24.07-2.39q-14.25-1.43-28.49-2.89c-5.43-.56-10.86-1.1-16.28-1.77-8.84-1.1-17.65-2.43-26.5-3.42-5.49-.62-11-.64-16.54-1.2-9.73-1-19.44-2.22-29.15-3.35z" transform="translate(-660 -315)" fill="#152329"/><path class="cls-14" d="M669.94 409.48l.63-1.46c1.87 0 3.76-.1 5.62.08q21.45 2.16 42.91 4.4c3 .3 5.94.44 8.89.86 6.2.89 12.37 2.11 18.59 2.84 8.38 1 16.8 1.57 25.19 2.45 10.72 1.13 21.42 2.43 32.14 3.59 5.75.61 11.51 1 17.26 1.63 8.83.92 17.64 1.9 26.46 2.89q8.31.93 16.61 2c6.51.81 13 1.8 19.53 2.5 8.39.91 16.81 1.51 25.19 2.43 12.56 1.36 25.11 2.87 37.66 4.35 7.62.9 15.23 1.86 22.85 2.79 4.67.56 9.33 1.23 14 1.63 6.19.53 12.44.55 18.6 1.31 11.44 1.39 22.79 3.4 34.24 4.7 13.3 1.52 26.65 2.59 40 3.73 1.46.13 3-.57 4.51-.89l3.38 1.58c3 .55 6 1.29 9.08 1.61 12.92 1.34 25.85 2.51 38.77 3.87 1 .11 1.89 1.23 2.83 1.88l-3.26 1.15c.39 4 .82 7.65 1.09 11.34.21 2.88-1.35 4.66-4.14 4.71q-11.92.18-23.87-.09c-2.17-.05-4.07-1.06-3.93-3.91l5.59-.65c.23-2.92.45-5.72.64-8.08-4.29-1.44-8.18-2.64-12-4.06-3.26-1.22-6.33-3-9.65-4-8.35-2.5-17.11 1.48-19.79 10.1.77.46 1.59 1 2.43 1.44 3.43 2 6.52 3.21 9.52-1.07 1.79-2.55 4.48-1.64 6.74 0l-10.82 6.7c-1.11-.67-2.17-1.79-3.34-1.92-11.87-1.36-23.75-2.58-35.64-3.74-.83-.08-1.74.57-2.61.88-.46-.72-1-1.42-1.36-2.18-4-7.78-18.79-8.18-22.15-.36-.67-.47-1.3-1.27-2-1.35-7.6-.85-15.23-1.47-22.83-2.38-5.86-.7-11.67-2-17.54-2.49-4.74-.4-9.65-2.31-14.31.51-3.47-2.56-6.84-5.28-10.47-7.58-1.05-.66-2.87-.11-4.34-.11-7.52-.76-15-1.56-22.56-2.28-11.11-1.05-22.23-1.93-33.32-3.1-12.8-1.34-25.57-3-38.37-4.38-14.13-1.57-28.28-3-42.41-4.57-15.07-1.68-30.12-3.5-45.18-5.18-9.73-1.08-19.47-2-29.2-3-9-1-18-2.15-27-3.11-9.66-1-19.33-1.92-29-2.87z" transform="translate(-660 -315)"/><path d="M669.88 608.25c9.71 1.13 19.42 2.34 29.15 3.35 5.5.56 11.05.58 16.54 1.2 8.85 1 17.66 2.32 26.5 3.42 5.42.67 10.85 1.21 16.28 1.77q14.24 1.47 28.49 2.89c8 .8 16 1.5 24.07 2.39 8.86 1 17.71 2.2 26.57 3.24 4.31.5 8.65.76 13 1.25 8.11.92 16.21 2 24.33 2.88 6.17.66 12.38 1 18.55 1.63 6.66.68 13.29 1.55 19.94 2.32 6.4.73 12.81 1.42 19.21 2.16 8.25 1 16.49 2 24.74 2.89q11.46 1.26 22.95 2.35c10.86 1 21.75 1.85 32.6 3.07 7.87.9 15.67 2.44 23.53 3.46 5.9.76 11.85 1.13 17.77 1.74q13.32 1.38 26.62 2.86c9.12 1 18.22 2.21 27.35 3.1 11.6 1.13 23.24 2 34.85 3.1 3.75.37 7.43 1.5 11.18 2 7.54.94 15.11 1.66 22.67 2.46 8.88.93 17.76 1.83 26.64 2.75l24.05 2.5 21.16 2.26q-.69 6.39-1.39 12.78c-10-1-19.9-1.85-29.83-2.92-5.78-.62-11.51-1.64-17.29-2.32q-16.66-1.95-33.37-3.69c-8.64-.89-17.3-1.5-25.94-2.38-8.26-.85-16.5-1.9-24.74-2.85-9.22-1-18.42-2.2-27.65-3.1s-18.44-1.33-27.61-2.36c-7.56-.86-15-2.46-22.56-3.43-6.22-.81-12.5-1.12-18.74-1.75-8.75-.89-17.49-1.88-26.24-2.8-2.35-.24-4.72-.32-7.05-.61-8.59-1.08-17.15-2.31-25.74-3.31-11.2-1.31-22.42-2.5-33.63-3.66-8.27-.85-16.57-1.44-24.82-2.39-14-1.61-27.91-3.49-41.89-5.08-6.53-.75-13.12-1-19.66-1.67-10.72-1.14-21.41-2.48-32.12-3.72-12.81-1.49-25.6-3-38.42-4.4-8.26-.9-16.56-1.49-24.83-2.38-7.88-.84-15.73-2-23.62-2.81-4.88-.51-9.81-.45-14.69-1-5.41-.58-10.76-1.67-16.16-2.32-6.89-.82-13.81-1.41-20.71-2.11z" transform="translate(-660 -315)" fill="#142127"/><path class="cls-16" d="M1250.12 506.26v30c-4.18-.54-8.35-1.09-12.53-1.61-11.8-1.47-23.59-3-35.4-4.36-9.43-1.08-18.88-2-28.34-2.86-9.14-.86-18.29-1.56-27.43-2.44-5.18-.51-10.33-1.22-15.5-1.88-6.61-.85-13.2-1.83-19.83-2.57-5.24-.58-10.52-.77-15.76-1.33-9.24-1-18.47-2.16-27.7-3.19-7.64-.85-15.3-1.59-22.94-2.4-11.21-1.19-22.42-2.42-33.64-3.6-5.42-.57-10.87-.95-16.29-1.6-7.16-.88-14.31-1.84-21.44-3a58.87 58.87 0 01-7.33-2.15c8-3 15-7.23 17.13-16 9.12-1.63 18.52 2.33 26.79-3.32 8.18 5.22 15.17 5.14 20.75-.21 4.35.43 8.7.82 13 1.3 7.42.8 14.83 1.66 22.24 2.5 0 1 .06 2 0 3-.11 9 5.8 15.59 12.36 16.75 7.32 1.28 15 .5 22.56.27 2.07-.06 4.11-1.38 6.36-2.19-.74-3.2-1.36-5.94-2.09-9.1-1.48.36-2.72.75-4 1-4.73.78-9.47 2.15-14.2 2.11-7.9-.06-11.67-4.73-10.54-11.83 2.7.25 5.41.46 8.11.75 6.49.69 13 1.32 19.48 2.14 5.62.71 11.21 1.65 16.82 2.49-.63 1.68-4.14 2.48-1.8 5 4.51 4.95 4.57 4.89 10.43.65 2.44 1.2 5.3 3.66 6.63 3 2.21-1.09 5.41-2.75 5-6.45l7.27.68c.93 2.85 1.87 5.7 2.78 8.5 7.76-.8 14-3.41 19.39-8.15.36.33.68.89 1.08.95 9.47 1.43 18.93 3 28.43 4.16 5.6.71 11.28.76 16.9 1.34 11.13 1.14 22.21 2.39 33.25 3.65z" transform="translate(-660 -315)"/><path d="M1250.12 444c-11-.76-22.06-1.35-33.06-2.36-5.71-.53-11.33-2-17-2.71-6.09-.76-12.23-1.07-18.33-1.7-3.81-.4-7.59-1.08-11.39-1.54-4.37-.53-8.74-1-13.13-1.42-9.22-.81-18.48-1.29-27.67-2.36-10.2-1.19-20.31-3.15-30.52-4.28-8.83-1-17.75-1.13-26.61-1.93-4.92-.45-9.78-1.61-14.69-2.23q-14.73-1.86-29.5-3.46c-14-1.52-28.05-2.94-42.07-4.41-9.86-1-19.72-2-29.56-3.11-8.13-.9-16.24-1.95-24.36-2.86-5.43-.6-10.87-1-16.29-1.65-6.76-.78-13.51-1.69-20.26-2.55-1.1-.14-2.21-.32-3.32-.42-8.22-.81-16.45-1.66-24.69-2.39-4.15-.36-8.34-.28-12.47-.79-6.63-.83-13.2-2.1-19.83-2.95-5.09-.66-10.23-.92-15.34-1.43-8.06-.82-16.12-1.63-24.17-2.56-9.1-1.06-18.19-2.3-27.29-3.38q-16-1.89-32.13-3.63c-6-.64-12.13-1-18.16-1.67-6.62-.77-13.19-1.91-19.81-2.74-3.69-.46-7.42-.56-11.12-.92-4.81-.47-9.61-1-14.42-1.55q2.39-6.25 4.75-12.5c1.94 3.12 5.28 1.95 8 2.56.44.09 1-.35 1.44-.3 7.92 1 15.83 2.12 23.76 3 4.68.55 9.39.81 14.09 1.19h.37c5.36 2.39 11.08.89 16.58 1.55 8.09 1 16.13 2.41 24.21 3.41s16 1.62 24 2.56c4.38.52 8.71 1.4 13.08 2 1.22.19 2.49.06 3.72.19 5.94.66 11.86 1.49 17.81 2s12.07.72 18.11 1.15c1.45.1 2.88.67 4.34.8 8.19.72 16.4 1.29 24.59 2.08 3.85.37 7.65 1.2 11.48 1.71 5.4.72 10.82 1.31 16.22 2 4.3.55 8.58 1.23 12.88 1.69 5 .53 10 .78 15 1.33 9 1 18 2.16 26.94 3.2 8.37 1 16.75 1.87 25.13 2.78 6 .65 12.06 1.36 18.11 1.89 4.25.37 8.8-.38 12.69.93 4.16 1.39 8.15.64 12.18 1.15 6.56.83 13.08 2 19.65 2.75 9.16 1.08 18.36 1.87 27.53 2.95 7.24.86 14.43 2.15 21.69 2.92 11.27 1.2 22.58 2 33.85 3.21 14.28 1.55 28.52 3.5 42.8 5.07 8.94 1 17.91 1.58 26.87 2.39 7.85.72 15.71 1.35 23.54 2.29 8.72 1.05 17.4 2.43 26.11 3.58a49.93 49.93 0 005.61.12z" transform="translate(-660 -315)" fill="#365a6b"/><path class="cls-18" d="M669.87 509.25c9.37 1 18.74 1.94 28.1 3 7.37.86 14.71 2 22.08 2.83 4.32.49 8.7.46 13 .93 6.64.74 13.24 1.86 19.88 2.53s13.29.85 19.92 1.49c5.42.51 10.8 1.42 16.2 2.08 8 1 16 1.86 24 2.88 7 .89 14 2 21 2.85 3.57.44 7.18.51 10.76.9 10.71 1.17 21.4 2.46 32.1 3.62 5.67.62 11.37 1 17 1.63q18.5 1.9 37 3.91c6.28.67 12.56 1.34 18.84 2.09 10 1.18 19.89 2.54 29.86 3.58 5.62.59 11.31.52 16.94 1.09 5.78.58 11.51 1.63 17.27 2.37s11.33 1.32 17 2c10.83 1.2 21.67 2.42 32.52 3.57 8.11.86 16.25 1.52 24.35 2.51 1.77.22 3.41 1.51 5.11 2.31q-.11 5.93-.2 11.86l-2.51.13c-1.42-3.19-3.11-1.23-4.51-.61.18 2.13.32 3.93.47 5.73l-13.15-.77c-.5-2.05-1-4.11-1.59-6.46l-4 1.46c.27 1.4.47 2.46.68 3.52h-6.59c-1.05-5.37-2.56-7.28-5.88-7.24-3.74 0-5 2.64-5.63 5.74l-1-.14c-.28-1.92-.56-3.84-.88-6.08l-3.93.84a8.21 8.21 0 010 1.76c-.42 1.72-.47 4.54-1.45 4.93-2.91 1.15-5.11-.21-6-3.51a72.39 72.39 0 00-2.93-7.35l-3.88 2 2 5.18-8.72-.59v-10.55l-4.6.23v10.25h-2.1l-7-6.67-1.52.55V566l-7.09.55-7.8-4.8c-2.48 1.63-4.73 2.46-5.92 4.08s-1.26 4-1.93 6.41c-2.57.82-3.65-.48-3.51-3.63.16-3.67 0-7.36 0-11.29h-4.12c-1.45-.26-2.89-.62-4.36-.78-5.42-.61-10.85-1.12-16.27-1.73-7.89-.9-15.76-1.87-23.64-2.78-1.11-.13-2.25-.09-3.36-.22-10.18-1.17-20.35-2.4-30.54-3.53-7.76-.86-15.53-1.6-23.3-2.4L848.55 543c-5.91-.63-11.84-1.22-17.74-2-5.26-.66-10.48-1.7-15.75-2.24-8-.82-16.11-1.21-24.14-2-6.76-.71-13.46-1.92-20.2-2.71-10.4-1.22-20.82-2.3-31.23-3.4-10.93-1.15-21.86-2.25-32.78-3.38-6.17-.64-12.34-1.24-18.49-2s-12.23-1.67-18.34-2.51zm414.18 53.69c2.43 3.65 2.74 3.67 5.43 0l-2.72-2.55z" transform="translate(-660 -315)"/><path d="M1240.41 365.25q-16.48-1.56-33-3.12c-4.14-.4-8.28-.86-12.42-1.33-6.58-.75-13.15-1.65-19.75-2.29s-13.29-.85-19.9-1.56c-7.86-.85-15.65-2.36-23.52-2.94-6.17-.45-12-2.75-18.5-1.84-3.64.52-7.58-1.48-11.43-2-5.48-.67-11-1-16.49-1.47-7.9-.73-15.8-1.48-23.7-2.3q-10.18-1.06-20.36-2.3c-6-.74-12-1.71-18.05-2.35-3.89-.42-7.84-.32-11.74-.68-2.44-.23-4.83-1.11-7.27-1.31-5.19-.44-10.63.2-15.54-1.15a66.32 66.32 0 00-12.35-2.1c-5.6-.48-11.17-1.38-16.76-2s-11.36-2-16.95-1.67-11-1.23-16.57-1.41c-3.69-.13-7.36-1-11-1.53s-7.33-.86-11-1.44a16.67 16.67 0 01-3.39-1.33c1.12-.05 2.24-.13 3.36-.13q135 0 269.94.05c28.16 0 49.9 12.25 65.2 35.89a21.67 21.67 0 011.19 2.31z" transform="translate(-660 -315)" fill="#406a7e"/><path d="M680.15 715.7c1.06-.55 2.19-1.68 3.16-1.55 4.13.55 8.19 1.57 12.31 2.23 2.37.39 4.82.36 7.21.63 8.25.93 16.48 2 24.72 2.85 6.29.66 12.62.94 18.9 1.68 8.95 1.06 17.86 2.45 26.8 3.56 5.53.69 11.1 1.07 16.65 1.66 11.2 1.18 22.4 2.45 33.61 3.6 8.38.86 16.79 1.53 25.17 2.41 5.9.63 11.79 1.5 17.68 2.24 4 .51 8.11 1 12.16 1.49q12 1.38 24 2.71c7.88.87 15.76 1.7 23.65 2.54l27 2.84c7.76.81 15.53 1.53 23.29 2.43 9.45 1.1 18.89 2.36 28.34 3.52 3.07.38 6.17.57 9.23 1 .8.12 1.51.87 2.26 1.32-1.25 0-2.49.12-3.74.12H746.18c-28.29 0-50-12.32-65.49-35.92a6.37 6.37 0 01-.54-1.36z" transform="translate(-660 -315)" fill="#070c0e"/><path class="cls-21" d="M669.88 424.5c9.66.95 19.33 1.83 29 2.87 9 1 18 2.13 27 3.11 9.73 1.07 19.47 2 29.2 3 15.06 1.68 30.11 3.5 45.18 5.18 14.13 1.57 28.28 3 42.41 4.57 12.8 1.41 25.57 3 38.37 4.38 11.09 1.17 22.21 2 33.32 3.1 7.52.72 15 1.52 22.56 2.28a16 16 0 01-1.46 2.56c-2.32 2.8-2.56 4.66 1.26 6.75 3.14 1.72 5.63 4.7 8.21 7.31 3.11 3.14 2.5 6.1-1.8 6.86-4 .71-8.23.13-12.35.26a10.4 10.4 0 00-2.89 1l-8.27-1.5a51.84 51.84 0 00-.71-5.17c-1.24-5.1-4.22-8.68-9.51-9.82-5.62-1.21-10.72-.5-14.28 4.72a70.68 70.68 0 01-5 7 54 54 0 01-5.67 5c-3.1-.58-6.19-1.27-9.3-1.71-3.86-.56-7.75-.92-11.63-1.35l-15.12-1.68a16.08 16.08 0 00-7.56-11.05c-5.06-3.28-10.36-6.18-15.57-9.22-2.1-1.23-3.25-.57-4.29 1.64a7.1 7.1 0 01-3.61 3.59c-3.9 1.28-7.15 3.11-9.14 6.82-1.55-.76-3-1.88-4.69-2.21-3.85-.75-7.78-1.12-11.68-1.65 1.53-1.73 3.07-3.45 4.57-5.13-6.44-7.83-8.69-7.74-13.06.23l3.7 4.15-16.76-1.39v-16.7h-10.18v24.2a43.16 43.16 0 00-.49-6.66c-.25-1.14-1.38-2.79-2.32-3-4.62-.79-9.31-1.2-14-1.64-5.8-.55-11.62-.91-17.41-1.52-3-.32-6-1.13-9.1-1.46-5.91-.64-11.84-1.08-17.76-1.65-9.73-.94-19.46-1.92-29.19-2.87z" transform="translate(-660 -315)"/><path d="M1250.07 399l-26.39-2.74c-5.55-.58-11.11-1.12-16.65-1.77-9.84-1.16-19.65-2.46-29.49-3.59-5.8-.66-11.62-1.1-17.42-1.65q-12.22-1.17-24.45-2.35c-7.27-.7-14.53-1.35-21.79-2.17-9-1-17.94-2.26-26.93-3.25-5.18-.57-10.41-.64-15.58-1.27-8-1-15.91-2.48-23.91-3.35-12-1.31-24.11-2.23-36.16-3.39q-12-1.16-23.92-2.5-18.25-2.06-36.5-4.23c-10.34-1.21-20.66-2.53-31-3.64-8.39-.91-16.82-1.41-25.2-2.39-11.32-1.31-22.59-3-33.91-4.34-8.13-1-16.31-1.51-24.44-2.4-3.8-.42-7.53-1.39-11.32-1.77-4-.41-7.94-.36-11.91-.61-2.59-.16-5.17-.47-7.76-.77-8.12-.92-16.24-1.82-24.34-2.82-3.91-.49-7.77-1.32-11.67-1.88-3-.43-6.06-.7-9.1-1-6.61-.6-13.24-1.11-19.85-1.74-6.79-.66-13.58-1.3-20.34-2.17-5.07-.65-10.11-1.65-15.16-2.5l18.88-8.56c1.88.94 3.69 2.48 5.66 2.74 9 1.16 18 2 27 2.89 3.09.32 6.17.65 9.26 1q18.46 1.9 36.93 3.79c9.92 1 19.86 1.84 29.76 3s20 2.73 30 4c4.14.53 8.3.78 12.45 1.19q14.05 1.41 28.11 2.86c7.4.77 14.8 1.54 22.19 2.41 4.11.49 8.17 1.37 12.29 1.78 5.67.56 11.38.77 17.07 1.27 4.89.42 9.76 1 14.64 1.58 2.7.33 5.36.9 8.07 1.19 5.77.63 11.57 1.05 17.34 1.72 9.45 1.11 18.87 2.44 28.32 3.51 8.2.92 16.43 1.54 24.62 2.46 6.32.71 12.59 1.82 18.9 2.51 5.89.65 11.82.94 17.73 1.46 4.67.41 9.33.93 14 1.41l20.48 2.09c2.09.22 4.18.47 6.27.73 8 1 16.08 2 24.12 3 7.88.95 15.75 1.91 23.64 2.74 6.54.68 13.11 1.06 19.64 1.8 6.76.77 13.47 1.91 20.22 2.73 5.66.69 11.35 1.21 17 1.71 6.46.56 12.94 1 19.41 1.52.42 3.26.8 6.51 1.19 9.76z" transform="translate(-660 -315)" fill="#3c6376"/><path class="cls-23" d="M966 503.29a58.87 58.87 0 007.33 2.15c7.13 1.13 14.28 2.09 21.44 3 5.42.65 10.87 1 16.29 1.6 11.22 1.18 22.43 2.41 33.64 3.6 7.64.81 15.3 1.55 22.94 2.4 9.23 1 18.46 2.21 27.7 3.19 5.24.56 10.52.75 15.76 1.33 6.63.74 13.22 1.72 19.83 2.57 5.17.66 10.32 1.37 15.5 1.88 9.14.88 18.29 1.58 27.43 2.44 9.46.89 18.91 1.78 28.34 2.86 11.81 1.35 23.6 2.89 35.4 4.36 4.18.52 8.35 1.07 12.53 1.61v12c-1.85-.17-3.7-.29-5.54-.53-5.78-.76-11.53-1.71-17.32-2.32-8.41-.89-16.84-1.53-25.27-2.33-5.06-.48-10.11-1.05-15.17-1.57-6.91-.72-13.82-1.38-20.71-2.16-6.49-.72-12.95-1.59-19.43-2.34-5.3-.61-10.61-1.13-15.91-1.69l-26.63-2.81c-8.38-.9-16.77-1.73-25.14-2.74-5.77-.7-11.49-1.85-17.27-2.46-8.75-.93-17.54-1.53-26.3-2.36-3.94-.37-7.87-1-11.8-1.43-7.89-.88-15.78-1.7-23.67-2.57s-16-1.9-24-2.66c-9.45-.9-18.94-1.39-28.38-2.4-14.66-1.56-29.3-3.35-43.93-5.18-4-.5-7.93-1.51-11.89-2.28a19.33 19.33 0 00.48-3.16c-.05-4.17-.21-8.34-.33-12.51 6.8.52 13.6 1 20.39 1.57 5.18.45 10.34 1.05 15.52 1.56l29.17 2.84c2.65 5.55 2.65 5.55 9 4.54z" transform="translate(-660 -315)"/><path class="cls-24" d="M669.88 522.75c6.11.84 12.21 1.76 18.34 2.51s12.32 1.35 18.49 2c10.92 1.13 21.85 2.23 32.78 3.38 10.41 1.1 20.83 2.18 31.23 3.4 6.74.79 13.44 2 20.2 2.71 8 .84 16.1 1.23 24.14 2 5.27.54 10.49 1.58 15.75 2.24 5.9.75 11.83 1.34 17.74 2l27.37 2.86c7.77.8 15.54 1.54 23.3 2.4 10.19 1.13 20.36 2.36 30.54 3.53 1.11.13 2.25.09 3.36.22 7.88.91 15.75 1.88 23.64 2.78 5.42.61 10.85 1.12 16.27 1.73 1.47.16 2.91.52 4.36.78l-.28 12-2.48-1.54c0-4.52-3.47-1.94-5.11-2.06-3.06-.23-5.56 3-5.52 6.29 0 3.43 2.16 4.44 5.2 4.36.38 0 .77.3 1.51.6-2.76 2.49-5.72 3.2-8.49 1.68-4.57-2.5-1.42-6.54-1.2-10.08l-3.84-1.35c-.64 2.11-1.22 4-1.79 5.85h-9.53c0-3.38-.32-6.62-4.43-7.57-3.82-.88-5.63 1.42-7.22 4.42a4.83 4.83 0 01-3.26 2.26c-.65.07-1.55-1.77-2.26-2.8a13.54 13.54 0 01-.91-2.13l-3.88 2.07h-3.23l-1.11-4.68-3.37.8c-1.26 2.62 1.88 6-2.44 6.95-4.82 1.09-5.1-2.27-5.19-5.89l-3.85.48c-.47 5.84-.47 5.84-5 5 .55-7-3.18-9.33-11-6.57v-7.79h-4c-.13 2.79-.25 5.38-.37 8l-14.4-.71-4.32.67a16.23 16.23 0 01.43 1.91c.11 2 1.52 4.57-2.3 5-3.59.41-3.81-1.56-3.71-4.27.12-3.53 0-7.07 0-11.18l-4.4.99-29.94-3.14c-4.93-.51-9.87-.94-14.8-1.47-8.87-.94-17.73-1.94-26.59-2.88-5.43-.58-10.88-1-16.29-1.65-8.95-1.12-17.86-2.53-26.82-3.57-8.25-1-16.54-1.58-24.81-2.41-9.37-.93-18.76-1.79-28.11-2.93-6.16-.75-12.27-2-18.41-3zm250.9 38.65v-1.55c-2.64-.26-5.29-.67-7.93-.68-.63 0-1.26 1.32-2 2.17l2.93 2.78c1.35-3.2 2.93-1.27 4.71-.16z" transform="translate(-660 -315)"/><path d="M891.73 508.42c4 .77 7.89 1.78 11.89 2.28 14.63 1.83 29.27 3.62 43.93 5.18 9.44 1 18.93 1.5 28.38 2.4 8 .76 16 1.78 24 2.66s15.78 1.69 23.67 2.57c3.93.44 7.86 1.06 11.8 1.43 8.76.83 17.55 1.43 26.3 2.36 5.78.61 11.5 1.76 17.27 2.46 8.37 1 16.76 1.84 25.14 2.74l26.63 2.81c5.3.56 10.61 1.08 15.91 1.69 6.48.75 12.94 1.62 19.43 2.34 6.89.78 13.8 1.44 20.71 2.16 5.06.52 10.11 1.09 15.17 1.57 8.43.8 16.86 1.44 25.27 2.33 5.79.61 11.54 1.56 17.32 2.32 1.84.24 3.69.36 5.54.53v8.25c-9.35-1.09-18.7-2.26-28.07-3.23-5.62-.59-11.29-.79-16.92-1.32-3.8-.36-7.57-1.05-11.36-1.48l-27-3c-14.78-1.69-29.54-3.5-44.33-5.13-8.26-.92-16.55-1.5-24.82-2.39-5.66-.61-11.29-1.54-17-2.21-6.9-.82-13.81-1.51-20.71-2.26q-16.08-1.75-32.16-3.53c-9.34-1.05-18.67-2.16-28-3.22q-22.35-2.54-44.71-5c-5.86-.64-11.74-1.12-17.61-1.74-8.38-.89-16.75-1.9-25.14-2.72-3.67-.37-7.38-.3-11.06-.62-2.57-.22-5.1-.83-7.67-1.15-12.3-1.51-24.6-3.11-36.92-4.42-9.25-1-18.56-1.45-27.82-2.38-5.92-.59-11.79-1.65-17.69-2.4s-12.07-1.39-18.1-2c-3-.32-6-.38-8.89-.89-1-.18-1.81-1.36-2.7-2.08 6.27-2.2 11.77-5.46 15.4-11.27 1 .74 2 2 3.08 2.13 7.37.67 14.77 1 22.14 1.62 5.88.48 11.75 1 17.6 1.8s11.41 2 17.15 2.63c6.4.74 12.87.94 19.27 1.67 1.94.22 3.77 1.4 5.65 2.14.15 1.42.31 2.85.47 4.41z" transform="translate(-660 -315)" fill="#253e4a"/><path class="cls-26" d="M920.67 569.24h3.23c2.39 6.29 1.6 7.81-6.74 11.66 1.46 1.05 2.88 2.71 3.52 2.44a21.56 21.56 0 007.17-4.17c2.19-2.17 7-4.09 10.17-3 3.9 1.41 5.76.64 7.84-3.22h9.53c.36 8.51 4.48 11.74 12.81 9.93a31 31 0 004.46-1.71c2.27.51 4.52 1.11 6.81 1.5 1.82.31 3.7.28 5.55.52 8.18 1.06 16.35 2.27 24.55 3.23 5 .58 10 .75 15 1.21 8.89.81 17.77 1.71 26.66 2.57.86.08 1.75 0 2.6.18 5.42.92 10.8 2.14 16.26 2.76 8.75 1 17.56 1.4 26.31 2.38 14.41 1.6 28.79 3.53 43.19 5.16 7.41.83 14.85 1.32 22.28 2s14.73 1.08 22.06 2c9.69 1.17 19.34 2.68 29 4.05 5.89.84 11.76 1.84 17.67 2.48 6.48.69 13 1 19.49 1.56v9.75c-8.26-.8-16.53-1.62-24.79-2.4-7.61-.72-15.24-1.26-22.83-2.14-9.08-1-18.11-2.45-27.19-3.54-5.91-.7-11.86-1.07-17.78-1.68-8.81-.91-17.6-1.89-26.41-2.84-7.52-.8-15-1.58-22.55-2.4-10.71-1.18-21.41-2.4-32.11-3.55-5.8-.63-11.61-1.06-17.4-1.72-9.58-1.08-19.14-2.3-28.72-3.4-8-.91-16-1.74-24-2.58-9.12-1-18.25-1.85-27.36-2.83-9.61-1-19.21-2-28.8-3.19-6.63-.8-13.23-1.84-19.85-2.74-1-.14-2-.15-3-.24-8.38-.79-16.78-1.52-25.15-2.41-8-.85-16-1.92-24-2.83-3.33-.37-6.68-.59-10-.88l-2.28-4.15-3.29 3.46c-5.34-.51-10.7-.9-16-1.63-1.3-.18-2.43-1.53-3.64-2.34 2.7-2.13 2.66-5 2-7.93l10.64 2.15c1 5.59 1.34 5.85 8 5.77 5.17-.07 7.49-2.56 7-7.71a40 40 0 00-.76-4l14.4.71c-.13 3 2.22 7.15-3.84 7.08.09 1.38.17 2.56.27 4.14 4.48-.23 8.68-.6 12.88-.63a119.37 119.37 0 0115.61.42c7.46.94 10.51-.7 11.53-7.25zm-19.57 10.81c2 3.3 3.7 3.43 5.62.08l-2.65-2.52z" transform="translate(-660 -315)"/><path class="cls-27" d="M1250.13 612.75c-6.5-.51-13-.87-19.49-1.56-5.91-.64-11.78-1.64-17.67-2.48-9.66-1.37-19.31-2.88-29-4.05-7.33-.88-14.7-1.32-22.06-2s-14.87-1.14-22.28-2c-14.4-1.63-28.78-3.56-43.19-5.16-8.75-1-17.56-1.4-26.31-2.38-5.46-.62-10.84-1.84-16.26-2.76-.85-.14-1.74-.1-2.6-.18-8.89-.86-17.77-1.76-26.66-2.57-5-.46-10-.63-15-1.21-8.2-1-16.37-2.17-24.55-3.23-1.85-.24-3.73-.21-5.55-.52-2.29-.39-4.54-1-6.81-1.5.71-2.27 2.41-4.85 1.82-6.71-.48-1.5-3.7-2.14-6.48-3.54 1.56-.6 3-1.05 4.29-1.67a16.94 16.94 0 002.34-1.59l2.48 1.54c.38 6.94 1.58 7.62 8 7.28 3.45-.17 7 .12 10.34-.37 2.24-.32 4.91-1.11 6.36-2.66 2.11-2.25.52-4.84-1.21-7l7.09-.55 4.8 4.45-.68 1.34-7.4.63v3.48c9 2 13.2-1 11.82-8.13h2.1v8.36c3.51 1.09 4.72 0 4.45-3.22a44.19 44.19 0 01.15-5.14l8.72.59 1.06 3.51h-7.32v4.49a39.55 39.55 0 006-.06 14.41 14.41 0 016.66 0c5.89 1.67 9.58-.59 10.79-5.69l1 .14c-.41 4.34 2.61 5.53 7.16 6.36l-6.91 3.35c.14 3.11 1.82 3.8 4.41 2.59 2.07-1 4-2.23 6-3.36 1.51 4.31 2 4.49 5.91 3.14 4.37-1.53 5.89-4.94 6.45-9.1l13.15.77c-.13 4.88-4.85 4.23-7.54 6 2.42 3.55 2.85 3.7 6.44 2.13 1-.44 2-1 2.94-1.55a17.84 17.84 0 002.8.89c5.34.74 10.69 1.52 16.06 2 1.82.17 3.71-.46 5.56-.72l5.93.34c1.87.89 3.69 1.88 5.62 2.62.71.27 1.68-.22 2.49-.12 4.56.59 9.1 1.33 13.67 1.86 2.91.34 5.87.31 8.79.62 9.42 1 18.83 2.16 28.25 3.15 4.52.47 9.08.59 13.59 1.09s9 1.39 13.56 1.89c6.16.69 12.35 1.13 18.53 1.74 9.13.9 18.25 1.86 27.37 2.79l.02 13.64zm-211.9-32.89l.07 1.61 7.79 1.1 2.3-2.59-2.39-2.5-.35 1h-5.91zm-182.62-9.11L845 568.6c-2.86-4.59-9.46-4.46-11.32.83-.41 1.17-2 1.93-3 2.87a25.17 25.17 0 00-2.41-2.83c-.77-.69-2-1.72-2.63-1.48-.8.3-1.18 1.71-1.74 2.64l-3.35.12a12.14 12.14 0 00-6.63-8.33c-.75-.39-2.11.39-3.19.64.29 1.06.31 2.31.91 3.13a36.79 36.79 0 003.69 3.81l-9.63-.75c-3.39-5.35-7.65-5.38-11.34-.21a27.81 27.81 0 01-3.34 3.35l-10.86-1.64c-1-4.84-5.25-6.23-8.85-8.16-.9-.49-2.55.43-3.86.71l-10.2-1.43-3.09-.75-4.87-.87c-.73-1-1.26-2.4-2.23-2.83-1.6-.71-2.46.36-2.37 2.08-9.37-.78-18.74-1.48-28.1-2.37-5.28-.5-10.53-1.3-15.8-2-6.73-.82-13.47-1.6-20.21-2.44-3.55-.45-7.08-1-10.63-1.49V537c6.14 1 12.25 2.2 18.41 3 9.35 1.14 18.74 2 28.11 2.93 8.27.83 16.56 1.44 24.81 2.41 9 1 17.87 2.45 26.82 3.57 5.41.68 10.86 1.07 16.29 1.65 8.86.94 17.72 1.94 26.59 2.88 4.93.53 9.87 1 14.8 1.47l29.86 3.09z" transform="translate(-660 -315)"/><path class="cls-24" d="M1250.12 599.25c-9.12-.93-18.24-1.89-27.37-2.79-6.18-.61-12.37-1.05-18.53-1.74-4.54-.5-9-1.39-13.56-1.89s-9.07-.62-13.59-1.09c-9.42-1-18.83-2.14-28.25-3.15-2.92-.31-5.88-.28-8.79-.62-4.57-.53-9.11-1.27-13.67-1.86-.81-.1-1.78.39-2.49.12-1.93-.74-3.75-1.73-5.62-2.62 4.12-.73 7.86-1.92 8.34-7.34 5.21 0 10.2.05 15.18 0 3.38 0 6.8-.61 10.13-.26 5.8.6 6.66.26 8.08-5.27l3.6-.1c.05 1.78.84 4.2 0 5.22-1.73 2.07-4.37 3.39-6.76 5.11.92 3.73 3.82 2.93 6.39 1.54 1.77-1 3-2.82 4.61-4.14.93-.76 2.11-1.74 3.14-1.69s2.06 1.17 2.89 2c1.19 1.23 2 2.89 3.31 3.94 2.72 2.18 4.64 1.34 4.86-2.17.2-3.06 1.59-4.21 4.52-4 1.74.15 3.49.09 5.23.13.55.54 1 1.47 1.65 1.57 3.64.62 7.31 1.15 11 1.53 6 .62 12.07 1.06 18.1 1.66 9.22.92 18.42 1.9 27.63 2.86z" transform="translate(-660 -315)"/><path class="cls-16" d="M669.88 447.76c9.73.95 19.46 1.93 29.19 2.87 5.92.57 11.85 1 17.76 1.65 3 .33 6 1.14 9.1 1.46 5.79.61 11.61 1 17.41 1.52 4.67.44 9.36.85 14 1.64.94.16 2.07 1.81 2.32 3a43.16 43.16 0 01.49 6.66v2.36l-.44 12.64-9.74-.76c-.25-1.85-.47-3.7-.74-5.55-1.4-9.66-3.34-10.67-12-6.26-.1.05-.15.19-.08.09.8 3.77 1.57 7.37 2.34 11l-16.24-2.24c-.43-3.39.25-7.62-1.53-10-3.95-5.27-9-9.71-13.89-14.28-1.2-1.13-2.94-.91-3.83 1.15-1.11 2.56-2.35 5.07-3.67 7.52s-2.88 4.91-4.33 7.35c-4.09-.32-8.2-.53-12.27-1-4.62-.54-9.2-1.32-13.8-2z" transform="translate(-660 -315)"/><path class="cls-21" d="M1250.12 506.26c-11-1.23-22.08-2.51-33.13-3.64-5.62-.58-11.3-.63-16.9-1.34-9.5-1.2-19-2.73-28.43-4.16-.4-.06-.72-.62-1.08-.95 4-4.93 5.09-10.79 5.34-16.91l11.29.74c2.38 4.73 6.3 6.91 11.5 6.92 3.74 0 7.48 0 11.22-.1a14.46 14.46 0 0010.64-4.73c6.82.84 13.65 1.64 20.46 2.52 3 .39 6.06.92 9.1 1.39q0 10.14-.01 20.26z" transform="translate(-660 -315)"/><path class="cls-23" d="M723.2 477.76l16.24 2.24c1.11 6.83-5.1 13.27-14.19 14.95-1-.73-2-2-3.08-2.11-11.57-1.36-23.16-2.57-34.75-3.76-5.84-.6-11.7-1.06-17.54-1.58v-21c4.6.68 9.18 1.46 13.8 2 4.07.47 8.18.68 12.27 1-.15 1.49-.4 3-.43 4.45-.11 5.83 2.14 10.16 6.89 11.74 7.46 2.47 17.59 2.08 20.79-7.93z" transform="translate(-660 -315)"/><path class="cls-26" d="M669.87 551.25c3.55.5 7.08 1 10.63 1.49 6.74.84 13.48 1.62 20.21 2.44 5.27.65 10.52 1.45 15.8 2 9.36.89 18.73 1.59 28.1 2.37v15h-2c-.22-1.69-.15-3.5-.79-5-.34-.82-1.91-1.12-2.92-1.66a12.31 12.31 0 00-1.15 2.68A8.34 8.34 0 00738 573l-3.76-.75c-.18-5.2-3.57-8-8.42-10.93l-3.74 9.43-52.24-5.25z" transform="translate(-660 -315)"/><path class="cls-18" d="M1250.12 584.25c-9.21-1-18.41-1.94-27.63-2.86-6-.6-12.07-1-18.1-1.66-3.68-.38-7.35-.91-11-1.53-.62-.1-1.1-1-1.65-1.57 5.46-1.9 6.62-4 5.47-9.66-.19-1-.28-1.94-.42-2.91a21.1 21.1 0 013.53-.29c8.61.78 17.21 1.65 25.81 2.48l24 2.25z" transform="translate(-660 -315)"/><path class="cls-10" d="M669.87 565.5l52.24 5.25c.07 3.16 1.56 5.18 4.75 5.64 3.48.5 6-.8 7.41-4.14l3.73.75c.88 4-1.64 5.71-4.8 6.51-2.13.54-2.26 1.42-1.52 3.06-3.7-.2-7.41-.33-11.11-.62-5.38-.42-10.75-1-16.13-1.45-8.38-.76-16.76-1.47-25.14-2.31-3.16-.32-6.3-1-9.45-1.44z" transform="translate(-660 -315)"/><path class="cls-28" d="M1250.13 486c-3-.47-6.06-1-9.1-1.39-6.81-.88-13.64-1.68-20.46-2.52 3.71-6.2 2.83-12.76 1.51-19.36 1.17-.49 2.39-1.51 3.5-1.39 8.19.84 16.37 1.91 24.55 2.91z" transform="translate(-660 -315)"/><path class="cls-8" d="M1247.19 684q.69-6.39 1.39-12.78l1.4-11.19c0 13 .82 26-3 38.67a4.47 4.47 0 01-.53.92c0-.21-.12-.43-.19-.64q.47-7.44.93-14.98z" transform="translate(-660 -315)"/><path class="cls-29" d="M796.9 492c-3.63 5.81-9.13 9.07-15.4 11.27-7.46 1-6 2.48-9.25-5.28-1-2.11.45-2.41 2-2.89a46.37 46.37 0 008.3-3c5.46-2.94 7.63-8.93 5.86-15.12l-1.95-7.8c8.66-4.73 8.77-4.69 11.87 4.07a6.89 6.89 0 001 2.35 5.06 5.06 0 002.65 1.77 49.75 49.75 0 006.13.09V465c2-3.71 5.23-5.54 9.13-6.82a7.1 7.1 0 003.61-3.59c1-2.21 2.19-2.87 4.29-1.64 5.21 3 10.51 5.94 15.57 9.22a16.08 16.08 0 017.56 11.05c-1 9.52-5.23 13.54-14.82 13.34-4.44-.1-8.9-1.57-13.3-1.34-7.13.37-14.2 1.62-21.71 2.54-.33 1.01-.93 2.64-1.54 4.24zm23.1-16.82h2c.72-2 1.75-3.95 2-6 .08-.68-1.86-2.3-2.79-2.24-1.21.06-3.21 1.55-3.21 2.26.21 2.04 1.27 3.99 2 5.98zm15-6l-1 .6c-.62 2.58-1.25 5.16-2.19 9.06 2.43-1.55 5.32-2.43 5.53-3.75.28-1.84-1.47-3.97-2.34-5.95z" transform="translate(-660 -315)"/><path class="cls-23" d="M788.4 477c1.77 6.19-.4 12.18-5.86 15.12a46.37 46.37 0 01-8.3 3c-1.54.48-3 .78-2 2.89l-26.74-3q2.21-7.12 4.42-14.25l9.74.76c.15.22.29.45.43.68v3.88c0 .08-.14.19-.12.23a3.83 3.83 0 00.28.42l7.08.79c2.07.22 2.87-.77 2.84-2.79 0-2.82.08-5.64.13-8.46z" transform="translate(-660 -315)"/><path class="cls-29" d="M749.93 480.75q-2.22 7.13-4.42 14.25c-5.32 5.76-12.11 8.35-20.06 9.33-1.08-2.64-2.15-5.23-3.35-8.17l3.15-1.21c9.09-1.68 15.3-8.12 14.19-14.95-.77-3.6-1.54-7.2-2.34-11-.07.1 0 0 .08-.09 8.67-4.41 10.61-3.4 12 6.26.28 1.88.5 3.73.75 5.58z" transform="translate(-660 -315)"/><path class="cls-30" d="M1196.8 564.06c.14 1 .23 2 .42 2.91 1.15 5.69 0 7.76-5.47 9.66-1.74 0-3.49 0-5.23-.13-2.93-.25-4.32.9-4.52 4-.22 3.51-2.14 4.35-4.86 2.17-1.32-1-2.12-2.71-3.31-3.94-.83-.85-1.89-2-2.89-2s-2.21.93-3.14 1.69c-1.6 1.32-2.84 3.18-4.61 4.14-2.57 1.39-5.47 2.19-6.39-1.54 2.39-1.72 5-3 6.76-5.11.86-1 .07-3.44 0-5.22.15-2.26.15-2.26 3.52-3 1.41 1.88 1.12 6.2 5.52 4.4 1.74-6.91 3.21-8.68 6.74-8 3.14.55 4 2.47 3.46 8.16h8.47c-2.81-.86-6-1.87-5.39-5.44.34-2.15.44-5.14 3.91-5.86s5.45.35 7.01 3.11z" transform="translate(-660 -315)"/><path class="cls-24" d="M1112.32 583.27c-1.85.26-3.74.89-5.56.72-5.37-.5-10.72-1.28-16.06-2a17.84 17.84 0 01-2.8-.89c3.24-3.43 3-7.52 2.2-11.7l2.51-.13v7.28l4.6-.25v-11.55l34.58 3c1 3.79-.69 4.86-4.25 4.64s-7 0-10.41 0c-.81 4.69 2.53 3.95 5.17 4.67-2.85 2.61-6.31 3.67-8.66 1.65-1.83-1.58-1.89-5.23-2.73-7.95l1.15-.6-3.55-1.37c-3.24 6.13-1.79 11.29 3.81 14.48z" transform="translate(-660 -315)"/><path class="cls-30" d="M1112.32 583.27c-5.6-3.19-7-8.35-3.81-14.53l3.55 1.37-1.15.6c.84 2.72.9 6.37 2.73 7.95 2.35 2 5.81 1 8.66-1.65-2.64-.72-6 0-5.17-4.67 3.36 0 6.9-.17 10.41 0s5.28-.85 4.25-4.64l3.66-1.52c1.72 2.26-.55 6.65 3.9 5.91 1.29-.21 2.24-2.54 3.35-3.9l-.86-1 3.75-.49 1.26 5.46 1.4.16c.38-1.65.75-3.3 1.2-5.23l3.46-.35c.4 1.91.75 3.6 1.09 5.29l1-.12v-5.77c4.26-1.76 4.26-1.76 5 4.49-1.42 5.53-2.28 5.87-8.08 5.27-3.33-.35-6.75.22-10.13.26-5 .06-10 0-15.18 0-.48 5.42-4.22 6.61-8.34 7.34zm-15.11-18.52v11.53l-4.6.25v-7.28q.11-5.93.2-11.86h4zm29.66-2.44L1129 560l8.6 1.31c-2.06 2.45-3 4.59-5.44 2.3-.32-.3-1.83.67-3 1.14zm67.48-5.16l-3 2.66-3.41-2.93 2.88-2.91zm-462.64 25.42c-.74-1.64-.61-2.52 1.52-3.06 3.16-.8 5.68-2.52 4.8-6.51a8.34 8.34 0 01-.25-2.5 12.31 12.31 0 011.15-2.68c1 .54 2.58.84 2.92 1.66.64 1.52.57 3.33.79 5-.14 4.65-3 7.13-6.94 8.82zm35.66-19.27c1.31-.28 3-1.2 3.86-.71 3.6 1.93 7.89 3.32 8.85 8.16-.81 4.26-2.26 5.52-6.52 5.52-2.48 0-5-.35-7.43-.16-3.79.3-7.94-.09-9.8 4.69-.39 1-2.23 1.44-3.44 2.05-2.85 1.43-4.93.95-5.52-1.56l7.08-6a17.75 17.75 0 000-3.64c-.73-4-.7-4 3.44-3.48 1.33 4.16 1.33 4.16 5 3.78-1.2-4.26.76-6.95 4.48-8.65zm56.45 7.33c.56-.93.94-2.34 1.74-2.64.61-.24 1.86.79 2.63 1.48a25.17 25.17 0 012.41 2.83c1-.94 2.64-1.7 3-2.87 1.86-5.29 8.46-5.42 11.32-.83.62 3 .66 5.8-2 7.93l-1.43.32-4.51-.68c-2.83-.95-7.54 1-9.46 2.79a22.55 22.55 0 01-7.43 4.39c-.8.3-2.42-1.59-4-2.68 7.97-2.67 9.25-4.46 7.73-10.04zm-32.88 1.76a27.81 27.81 0 003.34-3.35c3.69-5.17 8-5.14 11.34.21 0 .75-.07 1.49-.09 2.23-.09 4.55-2.79 6.4-7.12 4.84-1-.37-2-.88-3.8-1.67l-.6 10.64h-4.71c.57-4.45 1.11-8.67 1.64-12.9z" transform="translate(-660 -315)"/><path class="cls-26" d="M767.37 563.3c-3.72 1.71-5.68 4.39-4.4 8.61-3.71.38-3.71.38-5-3.78-4.14-.55-4.17-.48-3.44 3.48a17.75 17.75 0 010 3.64l-5.23-.75v-14.25l4.87.87-2.05 2.8 4.1 1.38 1-3.43z" transform="translate(-660 -315)"/><path class="cls-30" d="M815.25 570a36.79 36.79 0 01-3.69-3.81c-.6-.82-.62-2.07-.91-3.13 1.08-.25 2.44-1 3.19-.64a12.14 12.14 0 016.63 8.33c-1.79 4.53-6.71 7.27-11.21 5.75-1-.33-1.35-2.53-2.18-4.23 2.53 0 4.17.27 5.65-.1.96-.24 1.69-1.41 2.52-2.17zm-66.04-9.75v14.25a10.82 10.82 0 01-2.84 1.89c-.36.12-1.17-1.21-1.77-1.89v-15c-.09-1.72.77-2.79 2.37-2.08 1.03.43 1.51 1.85 2.24 2.83zm113.37 20.25l3.29-3.46 2.32 4.09c-2.13 2.13-4.05 2.34-5.61-.63z" transform="translate(-660 -315)"/><path class="cls-26" d="M837 576.17l4.51.68c-2.31 2.15-3.35 2.01-4.51-.68z" transform="translate(-660 -315)"/><path class="cls-28" d="M1080.84 451.27c-1.51.32-3 1-4.51.89-13.35-1.14-26.7-2.21-40-3.73-11.45-1.3-22.8-3.31-34.24-4.7-6.16-.76-12.41-.78-18.6-1.31-4.69-.4-9.35-1.07-14-1.63-7.62-.93-15.23-1.89-22.85-2.79-12.55-1.48-25.1-3-37.66-4.35-8.38-.92-16.8-1.52-25.19-2.43-6.52-.7-13-1.69-19.53-2.5q-8.29-1-16.61-2c-8.82-1-17.63-2-26.46-2.89-5.75-.6-11.51-1-17.26-1.63-10.72-1.16-21.42-2.46-32.14-3.59-8.39-.88-16.81-1.46-25.19-2.45-6.22-.73-12.39-1.95-18.59-2.84-3-.42-5.93-.56-8.89-.86q-21.47-2.21-42.91-4.4c-1.86-.18-3.75-.06-5.62-.08.23-3.59.31-7.2.82-10.75a3.39 3.39 0 012.7-1.91c5 .4 10.09 1.14 15.13 1.75 3.32.4 6.65.76 10 1.14 5 .57 10.1 1.16 15.14 1.72 8.26.93 16.53 1.88 24.79 2.77q13.68 1.49 27.36 2.87c8 .82 16 1.54 24.06 2.41 3.81.42 7.58 1.17 11.39 1.64 6.09.75 12.19 1.41 18.29 2.09 10.84 1.21 21.67 2.47 32.51 3.6s21.48 2.06 32.21 3.17c7.82.8 15.63 1.74 23.45 2.66 9.23 1.08 18.45 2.25 27.68 3.31q16.44 1.88 32.89 3.61c7.89.84 15.8 1.51 23.68 2.44 4.28.51 8.48 1.64 12.76 2.09 4.88.52 9.82.38 14.69.91 11.94 1.32 23.85 2.89 35.79 4.28 7.5.88 15 1.62 22.54 2.46a14.46 14.46 0 012.48.77l-4.27 5.52zm54.06 8.94c-.94-.65-1.83-1.77-2.83-1.88-12.92-1.36-25.85-2.53-38.77-3.87-3-.32-6.06-1.06-9.08-1.61l5.84-6.21-4.15-4.65c1.62-.26 3.27-.88 4.86-.73 8.87.81 17.75 1.67 26.59 2.78 10.29 1.29 20.53 2.91 30.81 4.28 3.56.47 7.16.67 10.75.9 8.92.54 17.84 1 26.77 1.54v14.67c-3.85-.33-7.28-.73-10.73-.82-.92 0-1.86.9-2.79 1.38a.83.83 0 01-.66-.16c-1.22-.73-2.36-1.8-3.67-2.09-1.59-.35-3.35.14-5 0-7.08-.75-14.14-1.62-21.2-2.45-1.64-4.1-4.49-.77-6.74-1.08z" transform="translate(-660 -315)"/><path class="cls-29" d="M1222.08 462.73c1.32 6.6 2.2 13.16-1.51 19.36a14.46 14.46 0 01-10.64 4.73c-3.74.1-7.48.1-11.22.1-5.2 0-9.12-2.19-11.5-6.92-.3-2.59-.81-5.17-.85-7.77-.16-9.6-.17-19.21-.24-28.82l10.18-2.11v13.95c0 5.84-.12 11.67-.1 17.51 0 2.47.94 4.51 3.73 4.69a71.73 71.73 0 008.55 0c3.12-.16 4.78-1.91 4.51-5.12a53 53 0 00-1-8.46c-.57-2.33.17-3.21 2.28-3.5a19.05 19.05 0 003.21-.67c2.98-1.12 4.33.09 4.6 3.03z" transform="translate(-660 -315)"/><path class="cls-28" d="M1214.25 460.4c-2.11.29-2.85 1.17-2.28 3.5a53 53 0 011 8.46c.27 3.21-1.39 5-4.51 5.12a71.73 71.73 0 01-8.55 0c-2.79-.18-3.72-2.22-3.73-4.69 0-5.84.06-11.67.1-17.51l7.54-.24 2.15 1.92a42 42 0 014.85 1.37 22.84 22.84 0 013.43 2.07z" transform="translate(-660 -315)"/><path class="cls-14" d="M1186.12 443.41c.07 9.61.08 19.22.24 28.82 0 2.6.55 5.18.85 7.77l-11.29-.74-3.75-13.26c.93-.48 1.87-1.41 2.79-1.38 3.45.09 6.88.49 10.73.82v-14.68c.14-2.45.31-4.9.43-7.35z" transform="translate(-660 -315)"/><path class="cls-29" d="M1206 456.93l-2.15-1.92c-1-1.21-2.08-2.42-3.09-3.58 3.94-6.59 5.32-6.85 11.3-2.21 6.6-6.18 6.42-4.38 11.87 1.74-4 6.77-5.43 7-11.16 2.35zM1085.91 442l4.15 4.65-5.84 6.21-3.38-1.58-4.21-4.7 4.27-5.52zm48.99 18.21c2.25.31 5.06-3 6.74 1q.61 7.39 1.24 14.78c-2.89 8.29-6.32 10.79-15.23 10.88-7.23.08-14.47.07-21.7 0-9.45-.09-12.31-2.17-15.31-10.89-7 1.78-12.05 5.84-14.19 11.48-1.13 7.1 2.64 11.77 10.54 11.83 4.73 0 9.47-1.33 14.2-2.11 1.28-.21 2.52-.6 4-1 .73 3.16 1.35 5.9 2.09 9.1-2.25.81-4.29 2.13-6.36 2.19-7.53.23-15.24 1-22.56-.27-6.56-1.16-12.47-7.71-12.36-16.75v-3a24.44 24.44 0 017.51-13.8l10.82-6.7c-2.26-1.62-5-2.53-6.74 0-3 4.28-6.09 3.07-9.52 1.07-.84-.48-1.66-1-2.43-1.44 2.68-8.62 11.44-12.6 19.79-10.1 3.32 1 6.39 2.79 9.65 4 3.81 1.42 7.7 2.62 12 4.06-.19 2.36-.41 5.16-.64 8.08l-5.59.65c-.14 2.85 1.76 3.86 3.93 3.91q11.94.27 23.87.09c2.79-.05 4.35-1.83 4.14-4.71-.27-3.69-.7-7.38-1.09-11.34zM966 503.29c-6.35 1-6.35 1-9-4.54-.18-.91-.36-1.83-.54-2.77 3-.92 5.76-1.57 8.39-2.65 6-2.45 8.68-6.51 8.63-12.57-.73-3.86-1.46-7.73-2.21-11.68 8.24-4.6 8.46-4.53 11.61 4.28.21.59.29 1.33.7 1.71 1 .88 2.05 2.22 3.12 2.24 5 .11 10.34.94 14.74-.72 2.9-1.09 4.37-6 6.48-9.14a8.51 8.51 0 00.48-1c3.36-7.82 18.13-7.42 22.15.36.4.76.9 1.46 1.36 2.18 1.2 5.06 1.56 10-1.2 14.78-5.58 5.35-12.57 5.43-20.75.21-8.27 5.65-17.67 1.69-26.79 3.32-2.17 8.76-9.12 12.97-17.17 15.99zm58-28.07c-2-1.91-3.26-3.9-4.86-4.26-.92-.21-2.44 2.21-3.7 3.44a33.55 33.55 0 005 3.8c.48.22 1.91-1.52 3.56-2.98z" transform="translate(-660 -315)"/><path class="cls-21" d="M1008.36 466.44a8.51 8.51 0 01-.48 1c-2.11 3.18-3.58 8.05-6.48 9.14-4.4 1.66-9.78.83-14.74.72-1.07 0-2.17-1.36-3.12-2.24-.41-.38-.49-1.12-.7-1.71-3.15-8.81-3.37-8.88-11.61-4.28.75 3.95 1.48 7.82 2.21 11.68l-17.06-1.5c2.16-7.12.21-13.2-4.71-18.53 4.66-2.82 9.57-.91 14.31-.51 5.87.49 11.68 1.79 17.54 2.49 7.6.91 15.23 1.53 22.83 2.38.71.09 1.34.92 2.01 1.36zm22.31 17.32c2.76-4.73 2.4-9.72 1.2-14.78.87-.31 1.78-1 2.61-.88 11.89 1.16 23.77 2.38 35.64 3.74 1.17.13 2.23 1.25 3.34 1.92a24.44 24.44 0 00-7.51 13.8c-7.41-.84-14.82-1.7-22.24-2.5-4.34-.48-8.71-.87-13.04-1.3z" transform="translate(-660 -315)"/><path class="cls-29" d="M951.67 460.73c4.92 5.33 6.87 11.41 4.71 18.53-1.74 1.73-3.19 4-5.27 5.08-7.35 3.7-15.11 2.93-23.28 1.54v-8.12a10.4 10.4 0 012.89-1c4.12-.13 8.35.45 12.35-.26 4.3-.76 4.91-3.72 1.8-6.86-2.58-2.61-5.07-5.59-8.21-7.31-3.82-2.09-3.58-4-1.26-6.75a16 16 0 001.46-2.56c1.47 0 3.29-.55 4.34.11 3.63 2.32 7 5.04 10.47 7.6z" transform="translate(-660 -315)"/><path class="cls-21" d="M1076.45 487.51c2.14-5.64 7.16-9.7 14.19-11.48 3 8.72 5.86 10.8 15.31 10.89 7.23.06 14.47.07 21.7 0 8.91-.09 12.34-2.59 15.23-10.88.36 2.93 2.49 1.07 3.75 1.27 6.26 1 12.54 1.82 18.81 2.7.64 5.77-1.9 10-6.87 12.43-3.17 1.57-6.76 2.29-10.16 3.39l-7.27-.68c-5.93-5.21-5.93-5.21-10.68-1a1.9 1.9 0 01-.67.24c-5.56-4.39-5.56-4.39-8.93-1.49-5.61-.84-11.2-1.78-16.82-2.49-6.48-.82-13-1.45-19.48-2.14-2.7-.27-5.41-.51-8.11-.76z" transform="translate(-660 -315)"/><path class="cls-29" d="M1148.41 495.82c3.4-1.1 7-1.82 10.16-3.39 5-2.46 7.51-6.66 6.87-12.43-.76-3.59-1.53-7.19-2.38-11.2l8.45-3a.83.83 0 00.66.16l3.75 13.27c-.25 6.12-1.31 12-5.34 16.91-5.36 4.74-11.63 7.35-19.39 8.15-.91-2.77-1.85-5.62-2.78-8.47zm-27.55-2.93c3.37-2.9 3.37-2.9 8.93 1.49a1.9 1.9 0 00.67-.24c4.75-4.21 4.75-4.21 10.68 1 .39 3.7-2.81 5.36-5 6.45-1.33.65-4.19-1.81-6.63-3-5.86 4.24-5.92 4.3-10.43-.65-2.36-2.57 1.15-3.37 1.78-5.05z" transform="translate(-660 -315)"/><path class="cls-30" d="M1000.63 566.53c1.73 2.13 3.32 4.72 1.21 7-1.45 1.55-4.12 2.34-6.36 2.66-3.39.49-6.89.2-10.34.37-6.45.34-7.65-.34-8-7.28l.28-12h4.12c0 3.93.12 7.62 0 11.29-.14 3.15.94 4.45 3.51 3.63.67-2.42.76-4.81 1.93-6.41s3.44-2.45 5.92-4.08zm48.22 4.08c-1.21 5.1-4.9 7.36-10.79 5.69a14.41 14.41 0 00-6.66 0 39.55 39.55 0 01-6 .06v-4.49h7.32l-1.06-3.51-2-5.18 3.88-2a72.39 72.39 0 012.93 7.35c.93 3.3 3.13 4.66 6 3.51 1-.39 1-3.21 1.45-4.93a8.21 8.21 0 000-1.76l3.93-.84c.44 2.26.72 4.18 1 6.1zm11.7 9.08c-2 1.13-4 2.39-6 3.36-2.59 1.21-4.27.52-4.41-2.59l6.91-3.35c-4.55-.83-7.57-2-7.16-6.36.67-3.1 1.89-5.71 5.63-5.74 3.32 0 4.83 1.87 5.88 7.24l-.89 7.53zm-44.29-11.94c1.38 7.15-2.84 10.12-11.82 8.13v-3.48l7.4-.63.68-1.34-4.8-4.45v-4.35l1.52-.55z" transform="translate(-660 -315)"/><path class="cls-30" d="M1072.91 573.73c-.56 4.16-2.08 7.57-6.45 9.1-3.9 1.35-4.4 1.17-5.91-3.14l-.06.09c6-.45 8-2.51 7.48-7.53-.21-1.06-.41-2.12-.68-3.52l4-1.46c.61 2.35 1.12 4.41 1.62 6.46zm17.19-4.35c.77 4.18 1 8.27-2.2 11.7-1 .52-1.92 1.11-2.94 1.55-3.59 1.57-4 1.42-6.44-2.13 2.69-1.77 7.41-1.12 7.54-6-.15-1.8-.29-3.6-.47-5.73 1.41-.62 3.09-2.58 4.51.61zm-67.1-1.63a44.19 44.19 0 00-.15 5.14c.27 3.2-.94 4.31-4.45 3.22V557.5l4.6-.23z" transform="translate(-660 -315)"/><path class="cls-27" d="M1068 572.25c.54 5-1.5 7.08-7.48 7.53q.43-3.76.89-7.53z" transform="translate(-660 -315)"/><path class="cls-30" d="M1084.05 562.94l2.71-2.52 2.72 2.55c-2.69 3.64-3 3.62-5.43-.03z" transform="translate(-660 -315)"/><path class="cls-16" d="M796.9 492c.61-1.62 1.21-3.25 1.58-4.23 7.51-.92 14.58-2.17 21.71-2.54 4.4-.23 8.86 1.24 13.3 1.34 9.59.2 13.86-3.82 14.82-13.34l15.12 1.68c3.88.43 7.77.79 11.63 1.35 3.11.44 6.2 1.13 9.3 1.7-.79 3.23-2 6.43-2.27 9.7-.42 5.42-.23 10.88-.3 16.33-1.88-.74-3.71-1.92-5.65-2.14-6.4-.73-12.87-.93-19.27-1.67-5.74-.66-11.42-1.89-17.15-2.63s-11.72-1.32-17.6-1.8c-7.37-.6-14.77-.95-22.14-1.62-1.08-.08-2.05-1.37-3.08-2.13zm130.93-14.24v8.12c8.17 1.39 15.93 2.16 23.28-1.54 2.08-1 3.53-3.35 5.27-5.08l17.06 1.5c0 6.06-2.63 10.12-8.63 12.57-2.63 1.08-5.43 1.73-8.39 2.65.18.94.36 1.86.54 2.77l-29.17-2.87c-5.18-.51-10.34-1.11-15.52-1.56-6.79-.58-13.59-1.05-20.39-1.57.5-3.3 1-6.6 1.55-10.2 3.94 1.83 6.76 3.49 9.8 4.49 6.84 2.26 12.79 0 14.95-5.39a42.14 42.14 0 001.38-5.39z" transform="translate(-660 -315)"/><path class="cls-29" d="M919.56 476.26a42.14 42.14 0 01-1.38 5.39c-2.16 5.43-8.11 7.65-14.95 5.39-3-1-5.86-2.66-9.8-4.49-.54 3.6-1 6.9-1.55 10.2.12 4.17.28 8.34.33 12.51a19.33 19.33 0 01-.48 3.16h-9.47c-.16-1.56-.32-3-.47-4.41.07-5.45-.12-10.91.3-16.33.26-3.27 1.48-6.47 2.27-9.7a52.76 52.76 0 005.67-5 70.68 70.68 0 005-7c3.56-5.22 8.66-5.93 14.28-4.72 5.29 1.14 8.27 4.72 9.51 9.82a51.84 51.84 0 01.74 5.18zm-18.25-2c.1.44.2.89.31 1.33l6.7 2.4c.3-1.24 1.16-2.71.77-3.66-.6-1.42-2.42-3.66-3.11-3.46-1.74.52-3.13 2.2-4.67 3.4z" transform="translate(-660 -315)"/><path class="cls-16" d="M788.4 477l-18.09-.74V459l16.69 1.42c1.43 1.32 2.9 2.37 4.79.75 3.9.53 7.83.9 11.68 1.65 1.65.33 3.14 1.45 4.69 2.21v12.45a49.75 49.75 0 01-6.13-.09 5.06 5.06 0 01-2.65-1.77 6.89 6.89 0 01-1-2.35c-3.1-8.76-3.21-8.8-11.87-4.07z" transform="translate(-660 -315)"/><path class="cls-29" d="M770.31 459v17.25c0 2.82-.16 5.64-.13 8.46 0 2-.77 3-2.84 2.79l-7.08-.79a.73.73 0 00-.16-.65V442.3h10.18zm21.46 2.17c-1.89 1.62-3.36.57-4.79-.75l-3.7-4.15c4.37-8 6.62-8.06 13.06-.23z" transform="translate(-660 -315)"/><path class="cls-30" d="M920.67 569.24c-1 6.55-4.07 8.19-11.47 7.27a119.37 119.37 0 00-15.61-.42c-4.2 0-8.4.4-12.88.63-.1-1.58-.18-2.76-.27-4.14 6.06.07 3.71-4.13 3.84-7.08l.37-8h4v7.79c7.85-2.76 11.58-.42 11 6.57 4.52.86 4.52.86 5-5l3.85-.48c.09 3.62.37 7 5.19 5.89 4.32-1 1.18-4.33 2.44-6.95l3.37-.8zM889.55 572l.35.79 5.46-2.6-1-1.75zm56.31 1c-2.08 3.86-3.94 4.63-7.84 3.22-3.12-1.13-8 .79-10.17 3a21.56 21.56 0 01-7.17 4.17c-.64.27-2.06-1.39-3.52-2.44 8.34-3.85 9.13-5.37 6.74-11.66l3.88-2.07a13.54 13.54 0 00.91 2.13c.71 1 1.61 2.87 2.26 2.8a4.83 4.83 0 003.26-2.26c1.59-3 3.4-5.3 7.22-4.42 4.11.91 4.42 4.15 4.43 7.53zm28.77-5.29a16.94 16.94 0 01-2.34 1.59c-1.32.62-2.73 1.07-4.29 1.67 2.78 1.4 6 2 6.48 3.54.59 1.86-1.11 4.44-1.82 6.71a31 31 0 01-4.46 1.71c-8.33 1.81-12.45-1.42-12.81-9.93.57-1.87 1.15-3.74 1.79-5.85l3.82 1.35c-.22 3.54-3.37 7.58 1.2 10.08 2.77 1.52 5.73.81 8.49-1.68-.74-.3-1.13-.61-1.51-.6-3 .08-5.15-.93-5.2-4.36 0-3.27 2.46-6.52 5.52-6.29 1.66.12 5.09-2.46 5.13 2.06zm-119.02 3.04V558l4.37-1.08c0 4.11.09 7.65 0 11.18-.1 2.71.12 4.68 3.71 4.27 3.82-.43 2.41-3 2.3-5a16.23 16.23 0 00-.43-1.91l4.32-.67a40 40 0 01.76 4c.44 5.15-1.88 7.64-7 7.71-6.64.1-7.05-.16-8.03-5.75z" transform="translate(-660 -315)"/><path class="cls-30" d="M920.78 561.4l-2.29 2.6c-1.78-1.11-3.36-3-4.71.16l-2.93-2.78c.75-.85 1.38-2.18 2-2.17 2.64 0 5.29.42 7.93.68zm-19.68 18.65l3-2.44 2.65 2.52c-1.95 3.35-3.69 3.22-5.65-.08zm137.13-.19l1.51-1.41h5.91l.35-1 2.39 2.5-2.3 2.59-7.79-1.1zm-281.06-17.99l-1 3.43-4.1-1.38 2.05-2.8z" transform="translate(-660 -315)"/><path class="cls-29" d="M723.2 477.76c-3.22 10-13.33 10.4-20.79 7.93-4.75-1.58-7-5.91-6.89-11.74 0-1.48.28-3 .43-4.45 1.45-2.44 3-4.85 4.33-7.35s2.56-5 3.67-7.52c.89-2.06 2.63-2.28 3.83-1.15 4.84 4.57 9.94 9 13.89 14.28 1.78 2.38 1.1 6.61 1.53 10zM709.29 468c-3.73 3.88-4.85 7.35-2.65 8.43 1.62.79 5.12.78 5.85-.24 2.58-3.7-1.1-5.65-3.2-8.19z" transform="translate(-660 -315)"/><path class="cls-21" d="M760.11 468.87v13.32c-.14-.23-.28-.46-.43-.68q.22-6.31.43-12.64z" transform="translate(-660 -315)"/><path class="cls-30" d="M734.27 572.25c-1.37 3.34-3.93 4.64-7.41 4.14-3.19-.46-4.68-2.48-4.75-5.64l3.74-9.43c4.85 2.94 8.24 5.73 8.42 10.93z" transform="translate(-660 -315)"/><path class="cls-21" d="M820 475.18c-.71-2-1.77-3.94-2-6-.06-.71 2-2.16 3.18-2.24.93-.06 2.87 1.56 2.79 2.24-.25 2.05-1.28 4-2 6zm15-6.04c.88 2 2.63 4.11 2.34 5.91-.21 1.32-3.1 2.2-5.53 3.75.94-3.9 1.57-6.48 2.19-9.06zm-74.9 16.93a.73.73 0 01.16.65 3.83 3.83 0 01-.28-.42s.08-.15.12-.23z" transform="translate(-660 -315)"/><path class="cls-14" d="M1171.51 465.83l-8.45 3c.85 4 1.62 7.61 2.38 11.2-6.27-.88-12.55-1.69-18.81-2.7-1.26-.2-3.39 1.66-3.75-1.27l-1.24-14.78c7.06.83 14.12 1.7 21.2 2.45 1.65.18 3.41-.31 5 0 1.31.27 2.45 1.37 3.67 2.1z" transform="translate(-660 -315)"/><path class="cls-21" d="M1024 475.22c-1.68 1.46-3.11 3.2-3.53 3a33.55 33.55 0 01-5-3.8c1.26-1.23 2.78-3.65 3.7-3.44 1.6.34 2.83 2.33 4.83 4.24zm-122.69-.95c1.54-1.2 2.93-2.88 4.67-3.39.69-.2 2.51 2 3.11 3.46.39 1-.47 2.42-.77 3.66l-6.7-2.4c-.11-.44-.21-.89-.31-1.33z" transform="translate(-660 -315)"/><path class="cls-23" d="M889.55 572l4.78-3.56 1 1.75-5.46 2.6z" transform="translate(-660 -315)"/><path class="cls-16" d="M709.29 468c2.1 2.59 5.78 4.54 3.2 8.19-.73 1-4.23 1-5.85.24-2.2-1.13-1.08-4.6 2.65-8.43z" transform="translate(-660 -315)"/></svg>