<svg xmlns="http://www.w3.org/2000/svg" width="665.2" height="944.88" viewBox="0 0 665.2 944.88"><defs><clipPath clipPathUnits="userSpaceOnUse" id="a"><path d="M0 708.66h498.9V0H0z"/></clipPath><clipPath clipPathUnits="userSpaceOnUse" id="b"><path d="M103.359 661.687h292.182v-40.825H103.359z"/></clipPath><clipPath clipPathUnits="userSpaceOnUse" id="c"><path d="M136.357 607.561h226.186v-18.364H136.357z"/></clipPath><clipPath clipPathUnits="userSpaceOnUse" id="d"><path d="M133.854 41.364h231.193V25.036H133.854z"/></clipPath><clipPath clipPathUnits="userSpaceOnUse" id="e"><path d="M176.238 347.434H327.34v-16.951H176.238z"/></clipPath></defs><path d="M66.52 94.493h532.16V850.4H66.52z" fill="#fce2d9"/><g clip-path="url(#a)" transform="matrix(1.33333 0 0 -1.33333 0 944.88)"><path d="M249.45 525.54c110.214 0 199.56-89.346 199.56-199.56s-89.346-199.56-199.56-199.56S49.89 215.766 49.89 325.98s89.346 199.56 199.56 199.56" fill="#ffde00"/><path d="M339.77 407.09V134.41H159.13v272.68c0 21.9 17.52 39.72 39.3 40.21v27.55c0 25.03 20.28 45.31 45.3 45.31h11.43c25.03 0 45.31-20.28 45.31-45.31V447.3c21.79-.49 39.3-18.31 39.3-40.21z" fill="none" stroke="#27348b" stroke-miterlimit="10"/><path d="M49.89 184.25h399.12V70.859H49.89z" fill="#2d4059"/><path d="M49.89 269.29h399.12v-85.039H49.89z" fill="#be1622"/><path d="M49.89 325.98h399.12v-56.69H49.89z" fill="#ef7b41"/><g clip-path="url(#b)"><text transform="matrix(1 0 0 -1 103.36 637.664)" style="-inkscape-font-specification:IRANSans-Bold" font-weight="700" font-size="28" font-family="IRANSans" fill="#2d4059"><tspan x="0 13.328 23.128 30.968 42.167999 63.419998 71.624001 88.171997 103.572 114.716 130.284 138.48801 161.812 172.73199 182.532 191.07201 202.188 210.392 225.28799 250.88 270.84399" y="0">هراﺰﻫ مدﺮﻣ ﺦﯾرﺎﺗ ﻪﺻﻼﺧ</tspan></text></g><g clip-path="url(#c)"><text transform="matrix(1 0 0 -1 136.357 596.44)" style="-inkscape-font-specification:IRANSans-Light" font-weight="300" font-size="13" font-family="IRANSans" fill="#4c4068"><tspan x="0 6.1880002 10.998 14.118 19.318001 28.665001 33.553001 41.028 48.178001 53.352001 60.580002 65.468002 72.384003 76.596001 81.484001 93.339996 97.903 102.908 108.082 115.31 120.198 131.36501 135.13499 144.48199 151.632 154.752 162.70799 167.778 174.655 179.465 184.353 198.653 208.871 214.045 220.42799" y="0">هراﺰﻫ مدﺮﻣ ﻪﺑ ﻂﺒﺗﺮﻣ یﺎﻫداﺪﯾور ﺖﺳﺮﻬﻓ</tspan></text></g><g clip-path="url(#d)"><text transform="matrix(1 0 0 -1 133.853 31.164)" style="-inkscape-font-specification:IRANSans-Light" font-weight="300" font-size="11" font-family="IRANSans" fill="azure"><tspan x="0 3.0469999 9.0970001 14.696 23.341999 24.134001 33.187 39.303001 43.438999 47.817001 57.893002 62.568001 66.351997 72.468002 76.603996 85.810997 90.100998 97.944 101.739 105.083 109.219 115.038 119.174 125.224 127.864 132.011 135.355 139.491 149.952 154.022 159.621 169.675 173.811 179.66299 183.22701 187.36301 197.967 201.157 205.832 210.85899 214.995 224.202 228.492" y="0">.دﻮﺷ‌ﯽﻣ ﺮﺸﺘﻨﻣ ﻦﯾﻼﻧآ و دازآ ترﻮﺻ ﻪﺑ بﺎﺘﮐ ﻦﯾا</tspan></text></g><g clip-path="url(#e)"><text transform="matrix(1 0 0 -1 176.238 337.168)" style="-inkscape-font-specification:IRANSans-Light" font-weight="300" font-size="12" font-family="IRANSans" fill="#27348b"><tspan x="0 7.3200002 13.812 17.988001 20.724001 26.892 33.276001 39.875999 46.259998 52.751999 58.812 65.304001 69.480003 76.080002 82.463997 88.956001 92.279999 98.772003 105.372 109.188 112.008 114.744 119.028 125.232 128.556 134.71201 141.384" y="0">Tarikhehazareha.netlify.com</tspan></text></g></g></svg>